<svg id="my-svg" width="100%" xmlns="http://www.w3.org/2000/svg" xmlns:xlink="http://www.w3.org/1999/xlink" class="flowchart" style="max-width: 789.391px; background-color: white;" viewBox="0 0 789.390625 285" role="graphics-document document" aria-roledescription="flowchart-v2"><style>#my-svg{font-family:"trebuchet ms",verdana,arial,sans-serif;font-size:16px;fill:#333;}@keyframes edge-animation-frame{from{stroke-dashoffset:0;}}@keyframes dash{to{stroke-dashoffset:0;}}#my-svg .edge-animation-slow{stroke-dasharray:9,5!important;stroke-dashoffset:900;animation:dash 50s linear infinite;stroke-linecap:round;}#my-svg .edge-animation-fast{stroke-dasharray:9,5!important;stroke-dashoffset:900;animation:dash 20s linear infinite;stroke-linecap:round;}#my-svg .error-icon{fill:#552222;}#my-svg .error-text{fill:#552222;stroke:#552222;}#my-svg .edge-thickness-normal{stroke-width:1px;}#my-svg .edge-thickness-thick{stroke-width:3.5px;}#my-svg .edge-pattern-solid{stroke-dasharray:0;}#my-svg .edge-thickness-invisible{stroke-width:0;fill:none;}#my-svg .edge-pattern-dashed{stroke-dasharray:3;}#my-svg .edge-pattern-dotted{stroke-dasharray:2;}#my-svg .marker{fill:#333333;stroke:#333333;}#my-svg .marker.cross{stroke:#333333;}#my-svg svg{font-family:"trebuchet ms",verdana,arial,sans-serif;font-size:16px;}#my-svg p{margin:0;}#my-svg .label{font-family:"trebuchet ms",verdana,arial,sans-serif;color:#333;}#my-svg .cluster-label text{fill:#333;}#my-svg .cluster-label span{color:#333;}#my-svg .cluster-label span p{background-color:transparent;}#my-svg .label text,#my-svg span{fill:#333;color:#333;}#my-svg .node rect,#my-svg .node circle,#my-svg .node ellipse,#my-svg .node polygon,#my-svg .node path{fill:#ECECFF;stroke:#9370DB;stroke-width:1px;}#my-svg .rough-node .label text,#my-svg .node .label text,#my-svg .image-shape .label,#my-svg .icon-shape .label{text-anchor:middle;}#my-svg .node .katex path{fill:#000;stroke:#000;stroke-width:1px;}#my-svg .rough-node .label,#my-svg .node .label,#my-svg .image-shape .label,#my-svg .icon-shape .label{text-align:center;}#my-svg .node.clickable{cursor:pointer;}#my-svg .root .anchor path{fill:#333333!important;stroke-width:0;stroke:#333333;}#my-svg .arrowheadPath{fill:#333333;}#my-svg .edgePath .path{stroke:#333333;stroke-width:2.0px;}#my-svg .flowchart-link{stroke:#333333;fill:none;}#my-svg .edgeLabel{background-color:rgba(232,232,232, 0.8);text-align:center;}#my-svg .edgeLabel p{background-color:rgba(232,232,232, 0.8);}#my-svg .edgeLabel rect{opacity:0.5;background-color:rgba(232,232,232, 0.8);fill:rgba(232,232,232, 0.8);}#my-svg .labelBkg{background-color:rgba(232, 232, 232, 0.5);}#my-svg .cluster rect{fill:#ffffde;stroke:#aaaa33;stroke-width:1px;}#my-svg .cluster text{fill:#333;}#my-svg .cluster span{color:#333;}#my-svg div.mermaidTooltip{position:absolute;text-align:center;max-width:200px;padding:2px;font-family:"trebuchet ms",verdana,arial,sans-serif;font-size:12px;background:hsl(80, 100%, 96.2745098039%);border:1px solid #aaaa33;border-radius:2px;pointer-events:none;z-index:100;}#my-svg .flowchartTitleText{text-anchor:middle;font-size:18px;fill:#333;}#my-svg rect.text{fill:none;stroke-width:0;}#my-svg .icon-shape,#my-svg .image-shape{background-color:rgba(232,232,232, 0.8);text-align:center;}#my-svg .icon-shape p,#my-svg .image-shape p{background-color:rgba(232,232,232, 0.8);padding:2px;}#my-svg .icon-shape rect,#my-svg .image-shape rect{opacity:0.5;background-color:rgba(232,232,232, 0.8);fill:rgba(232,232,232, 0.8);}#my-svg .label-icon{display:inline-block;height:1em;overflow:visible;vertical-align:-0.125em;}#my-svg .node .label-icon path{fill:currentColor;stroke:revert;stroke-width:revert;}#my-svg :root{--mermaid-font-family:"trebuchet ms",verdana,arial,sans-serif;}</style><g><marker id="my-svg_flowchart-v2-pointEnd" class="marker flowchart-v2" viewBox="0 0 10 10" refX="5" refY="5" markerUnits="userSpaceOnUse" markerWidth="8" markerHeight="8" orient="auto"><path d="M 0 0 L 10 5 L 0 10 z" class="arrowMarkerPath" style="stroke-width: 1; stroke-dasharray: 1, 0;"/></marker><marker id="my-svg_flowchart-v2-pointStart" class="marker flowchart-v2" viewBox="0 0 10 10" refX="4.5" refY="5" markerUnits="userSpaceOnUse" markerWidth="8" markerHeight="8" orient="auto"><path d="M 0 5 L 10 10 L 10 0 z" class="arrowMarkerPath" style="stroke-width: 1; stroke-dasharray: 1, 0;"/></marker><marker id="my-svg_flowchart-v2-circleEnd" class="marker flowchart-v2" viewBox="0 0 10 10" refX="11" refY="5" markerUnits="userSpaceOnUse" markerWidth="11" markerHeight="11" orient="auto"><circle cx="5" cy="5" r="5" class="arrowMarkerPath" style="stroke-width: 1; stroke-dasharray: 1, 0;"/></marker><marker id="my-svg_flowchart-v2-circleStart" class="marker flowchart-v2" viewBox="0 0 10 10" refX="-1" refY="5" markerUnits="userSpaceOnUse" markerWidth="11" markerHeight="11" orient="auto"><circle cx="5" cy="5" r="5" class="arrowMarkerPath" style="stroke-width: 1; stroke-dasharray: 1, 0;"/></marker><marker id="my-svg_flowchart-v2-crossEnd" class="marker cross flowchart-v2" viewBox="0 0 11 11" refX="12" refY="5.2" markerUnits="userSpaceOnUse" markerWidth="11" markerHeight="11" orient="auto"><path d="M 1,1 l 9,9 M 10,1 l -9,9" class="arrowMarkerPath" style="stroke-width: 2; stroke-dasharray: 1, 0;"/></marker><marker id="my-svg_flowchart-v2-crossStart" class="marker cross flowchart-v2" viewBox="0 0 11 11" refX="-1" refY="5.2" markerUnits="userSpaceOnUse" markerWidth="11" markerHeight="11" orient="auto"><path d="M 1,1 l 9,9 M 10,1 l -9,9" class="arrowMarkerPath" style="stroke-width: 2; stroke-dasharray: 1, 0;"/></marker><g class="root"><g class="clusters"><g class="cluster" id="データ取得時" data-look="classic"><rect style="" x="8" y="8" width="773.390625" height="125"/><g class="cluster-label" transform="translate(346.6953125, 8)"><foreignObject width="96" height="24"><div xmlns="http://www.w3.org/1999/xhtml" style="display: table-cell; white-space: nowrap; line-height: 1.5; max-width: 200px; text-align: center;"><span class="nodeLabel"><p>データ取得時</p></span></div></foreignObject></g></g><g class="cluster" id="データ保存時" data-look="classic"><rect style="" x="8" y="153" width="368.875" height="124"/><g class="cluster-label" transform="translate(144.4375, 153)"><foreignObject width="96" height="24"><div xmlns="http://www.w3.org/1999/xhtml" style="display: table-cell; white-space: nowrap; line-height: 1.5; max-width: 200px; text-align: center;"><span class="nodeLabel"><p>データ保存時</p></span></div></foreignObject></g></g></g><g class="edgePaths"><path d="M143.5,215.5L154.25,215.417C165,215.333,186.5,215.167,207.417,215.083C228.333,215,248.667,215,258.833,215L269,215" id="L_data_DB_0" class="edge-thickness-normal edge-pattern-solid edge-thickness-normal edge-pattern-solid flowchart-link" style=";" data-edge="true" data-et="edge" data-id="L_data_DB_0" data-points="W3sieCI6MTQzLjUsInkiOjIxNS41fSx7IngiOjIwOCwieSI6MjE1fSx7IngiOjI3MywieSI6MjE1fV0=" marker-end="url(#my-svg_flowchart-v2-pointEnd)"/><path d="M119.5,74.633L134.25,76.528C149,78.422,178.5,82.211,206.594,100.587C234.687,118.964,261.374,151.927,274.718,168.409L288.062,184.891" id="L_input_DB_0" class="edge-thickness-normal edge-pattern-solid edge-thickness-normal edge-pattern-solid flowchart-link" style=";" data-edge="true" data-et="edge" data-id="L_input_DB_0" data-points="W3sieCI6MTE5LjUsInkiOjc0LjYzMzMzMzMzMzMzMzM0fSx7IngiOjIwOCwieSI6ODZ9LHsieCI6MjkwLjU3ODQ4ODM3MjA5MzAzLCJ5IjoxODh9XQ==" marker-end="url(#my-svg_flowchart-v2-pointEnd)"/><path d="M119.5,65.075L134.25,62.396C149,59.717,178.5,54.358,210.656,51.679C242.813,49,277.625,49,305.771,49C333.917,49,355.396,49,375.635,49C395.875,49,414.875,49,433.222,50.844C451.57,52.687,469.264,56.374,478.112,58.218L486.959,60.061" id="L_input_LLM_0" class="edge-thickness-normal edge-pattern-solid edge-thickness-normal edge-pattern-solid flowchart-link" style=";" data-edge="true" data-et="edge" data-id="L_input_LLM_0" data-points="W3sieCI6MTE5LjUsInkiOjY1LjA3NX0seyJ4IjoyMDgsInkiOjQ5fSx7IngiOjMxMi40Mzc1LCJ5Ijo0OX0seyJ4IjozNzYuODc1LCJ5Ijo0OX0seyJ4Ijo0MzMuODc1LCJ5Ijo0OX0seyJ4Ijo0OTAuODc1LCJ5Ijo2MC44NzcyMDkzMDIzMjU1OH1d" marker-end="url(#my-svg_flowchart-v2-pointEnd)"/><path d="M351.875,215L356.042,215C360.208,215,368.542,215,382.208,193.5C395.875,172,414.875,129,433.217,106.096C451.558,83.193,469.241,80.385,478.083,78.982L486.924,77.578" id="L_DB_LLM_0" class="edge-thickness-normal edge-pattern-solid edge-thickness-normal edge-pattern-solid flowchart-link" style=";" data-edge="true" data-et="edge" data-id="L_DB_LLM_0" data-points="W3sieCI6MzUxLjg3NSwieSI6MjE1fSx7IngiOjM3Ni44NzUsInkiOjIxNX0seyJ4Ijo0MzMuODc1LCJ5Ijo4Nn0seyJ4Ijo0OTAuODc1LCJ5Ijo3Ni45NTA2OTc2NzQ0MTg2fV0=" marker-end="url(#my-svg_flowchart-v2-pointEnd)"/><path d="M578.438,70L585.271,70C592.104,70,605.771,70,618.771,70C631.771,70,644.104,70,650.271,70L656.438,70" id="L_LLM_USER_0" class="edge-thickness-normal edge-pattern-solid edge-thickness-normal edge-pattern-solid flowchart-link" style=";" data-edge="true" data-et="edge" data-id="L_LLM_USER_0" data-points="W3sieCI6NTc4LjQzNzUsInkiOjcwfSx7IngiOjYxOS40Mzc1LCJ5Ijo3MH0seyJ4Ijo2NjAuNDM3NSwieSI6NzB9XQ==" marker-end="url(#my-svg_flowchart-v2-pointEnd)"/></g><g class="edgeLabels"><g class="edgeLabel" transform="translate(208, 215)"><g class="label" data-id="L_data_DB_0" transform="translate(-32, -12)"><foreignObject width="64" height="24"><div xmlns="http://www.w3.org/1999/xhtml" class="labelBkg" style="display: table-cell; white-space: nowrap; line-height: 1.5; max-width: 200px; text-align: center;"><span class="edgeLabel"><p><strong>加工処理</strong></p></span></div></foreignObject></g></g><g class="edgeLabel" transform="translate(221.21707, 102.32557)"><g class="label" data-id="L_input_DB_0" transform="translate(-40, -12)"><foreignObject width="80" height="24"><div xmlns="http://www.w3.org/1999/xhtml" class="labelBkg" style="display: table-cell; white-space: nowrap; line-height: 1.5; max-width: 200px; text-align: center;"><span class="edgeLabel"><p><strong>検索クエリ</strong></p></span></div></foreignObject></g></g><g class="edgeLabel"><g class="label" data-id="L_input_LLM_0" transform="translate(0, 0)"><foreignObject width="0" height="0"><div xmlns="http://www.w3.org/1999/xhtml" class="labelBkg" style="display: table-cell; white-space: nowrap; line-height: 1.5; max-width: 200px; text-align: center;"><span class="edgeLabel"></span></div></foreignObject></g></g><g class="edgeLabel" transform="translate(411.98588, 135.53853)"><g class="label" data-id="L_DB_LLM_0" transform="translate(-32, -12)"><foreignObject width="64" height="24"><div xmlns="http://www.w3.org/1999/xhtml" class="labelBkg" style="display: table-cell; white-space: nowrap; line-height: 1.5; max-width: 200px; text-align: center;"><span class="edgeLabel"><p>検索結果</p></span></div></foreignObject></g></g><g class="edgeLabel" transform="translate(619.4375, 70)"><g class="label" data-id="L_LLM_USER_0" transform="translate(-16, -12)"><foreignObject width="32" height="24"><div xmlns="http://www.w3.org/1999/xhtml" class="labelBkg" style="display: table-cell; white-space: nowrap; line-height: 1.5; max-width: 200px; text-align: center;"><span class="edgeLabel"><p>応答</p></span></div></foreignObject></g></g></g><g class="nodes"><g class="node default" id="flowchart-data-0" transform="translate(88, 215)"><g class="basic label-container outer-path"><path d="M-50 -27 C-13.959595584180803 -27, 22.080808831638393 -27, 50 -27 C50 -27, 50 -27, 50 -27 C50.12798043659681 -26.994706689987602, 50.25596087319362 -26.989413379975204, 50.41289672736166 -26.982922465033347 C50.57193506722046 -26.963098356643844, 50.730973407079254 -26.94327424825434, 50.82297295140367 -26.931806517013612 C50.92154896254114 -26.911137301035126, 51.020124973678605 -26.890468085056636, 51.227427435703994 -26.847001329696653 C51.37926586528751 -26.801797070651254, 51.53110429487102 -26.756592811605852, 51.62349734602342 -26.729086208503173 C51.70137885064675 -26.698696751097238, 51.779260355270075 -26.668307293691303, 52.008477123264846 -26.578866633275286 C52.138579306087436 -26.515263551711687, 52.26868148891002 -26.451660470148088, 52.379736965185366 -26.397368756032446 C52.52080025935431 -26.313313277452668, 52.66186355352326 -26.22925779887289, 52.734740790612136 -26.185832391312644 C52.83983468193525 -26.110796795147962, 52.944928573258366 -26.035761198983277, 53.07106356344834 -25.94570254698197 C53.15878127546494 -25.871409434616282, 53.246498987481544 -25.79711632225059, 53.386407858128706 -25.678619553365657 C53.458066209630054 -25.60696120186431, 53.5297245611314 -25.53530285036296, 53.67861955336566 -25.386407858128706 C53.74168670511318 -25.311944612768006, 53.8047538568607 -25.237481367407305, 53.94570254698197 -25.07106356344834 C54.02926561135497 -24.95402620978264, 54.112828675727975 -24.83698885611694, 54.185832391312644 -24.734740790612136 C54.234081136109914 -24.653768949209084, 54.282329880907184 -24.57279710780603, 54.39736875603245 -24.37973696518537 C54.46909122449513 -24.23302631099972, 54.540813692957805 -24.086315656814072, 54.57886663327529 -24.008477123264846 C54.63730882898394 -23.858702611845256, 54.69575102469258 -23.708928100425663, 54.729086208503176 -23.623497346023417 C54.7567276663248 -23.530651325854844, 54.78436912414643 -23.437805305686272, 54.84700132969665 -23.227427435703994 C54.86690496291062 -23.1325026561953, 54.88680859612458 -23.037577876686605, 54.93180651701361 -22.82297295140367 C54.94352637891425 -22.72895069610572, 54.955246240814894 -22.63492844080777, 54.98292246503335 -22.412896727361662 C54.98689830654692 -22.316769742251132, 54.9908741480605 -22.220642757140602, 55 -22 C55 -22, 55 -22, 55 -22 C55 -11.128802909234949, 55 -0.25760581846989794, 55 22 C55 22, 55 22, 55 22 C54.99540061438862 22.11120289143145, 54.99080122877724 22.2224057828629, 54.98292246503335 22.412896727361662 C54.9707809462008 22.510301713278484, 54.95863942736825 22.607706699195308, 54.93180651701361 22.82297295140367 C54.91050951052955 22.92454303275328, 54.88921250404549 23.02611311410289, 54.84700132969665 23.227427435703994 C54.81803936003259 23.324708976963635, 54.78907739036853 23.42199051822327, 54.729086208503176 23.623497346023417 C54.68002705773534 23.749225174141714, 54.630967906967506 23.87495300226001, 54.57886663327529 24.008477123264846 C54.53559102876137 24.096998787181374, 54.492315424247444 24.1855204510979, 54.39736875603245 24.379736965185366 C54.34676804538564 24.46465591457133, 54.29616733473882 24.549574863957293, 54.185832391312644 24.734740790612133 C54.13567350750629 24.804992678423673, 54.08551462369994 24.875244566235214, 53.94570254698197 25.07106356344834 C53.888753893675684 25.138302711350306, 53.8318052403694 25.205541859252275, 53.67861955336566 25.386407858128706 C53.58239919685201 25.48262821464235, 53.48617884033837 25.578848571155994, 53.386407858128706 25.678619553365657 C53.27852983870523 25.769987575109084, 53.17065181928175 25.86135559685251, 53.07106356344834 25.94570254698197 C52.960239708178726 26.024829258770165, 52.84941585290912 26.103955970558363, 52.734740790612136 26.185832391312644 C52.63215429064006 26.246960677035577, 52.52956779066798 26.308088962758507, 52.379736965185366 26.397368756032446 C52.293817731252794 26.43937211005109, 52.207898497320215 26.481375464069732, 52.008477123264846 26.578866633275286 C51.868598369725966 26.63344749227672, 51.728719616187085 26.68802835127815, 51.62349734602342 26.729086208503173 C51.541409317695454 26.753524873386905, 51.459321289367495 26.777963538270633, 51.227427435703994 26.847001329696653 C51.087153127827264 26.876413759072538, 50.94687881995054 26.90582618844842, 50.82297295140367 26.931806517013612 C50.712785692491565 26.945541344513416, 50.60259843357946 26.959276172013222, 50.41289672736166 26.982922465033347 C50.29576774724339 26.987766955485863, 50.17863876712512 26.992611445938376, 50 27 C50 27, 50 27, 50 27 C10.614873783784908 27, -28.770252432430183 27, -50 27 C-50 27, -50 27, -50 27 C-50.140359213157225 26.99419470000186, -50.28071842631445 26.988389400003722, -50.41289672736166 26.982922465033347 C-50.516618230035796 26.969993593208102, -50.62033973270992 26.957064721382856, -50.82297295140367 26.931806517013612 C-50.970113789847716 26.900954327581697, -51.117254628291754 26.87010213814978, -51.227427435703994 26.847001329696653 C-51.37839401670911 26.802056631218985, -51.529360597714216 26.757111932741317, -51.62349734602342 26.729086208503173 C-51.75370140440178 26.678280427267868, -51.883905462780135 26.627474646032567, -52.008477123264846 26.578866633275286 C-52.115541146156296 26.526526221817488, -52.22260516904775 26.47418581035969, -52.379736965185366 26.397368756032446 C-52.46057078523376 26.34920225411124, -52.54140460528217 26.30103575219004, -52.734740790612136 26.185832391312644 C-52.83075512623947 26.11727947331285, -52.9267694618668 26.048726555313053, -53.07106356344834 25.94570254698197 C-53.16628661630741 25.86505273517972, -53.261509669166486 25.78440292337747, -53.386407858128706 25.67861955336566 C-53.48268099571044 25.58234641578393, -53.578954133292164 25.4860732782022, -53.67861955336566 25.386407858128706 C-53.7416345489555 25.312006193427013, -53.80464954454534 25.23760452872532, -53.94570254698197 25.07106356344834 C-54.00126495418095 24.99324357024133, -54.056827361379916 24.915423577034318, -54.185832391312644 24.734740790612133 C-54.232585802895954 24.656278442136905, -54.279339214479265 24.577816093661678, -54.39736875603244 24.37973696518537 C-54.43826769245362 24.29607685355702, -54.4791666288748 24.212416741928674, -54.57886663327528 24.00847712326485 C-54.62952172862246 23.878659239721287, -54.68017682396963 23.74884135617772, -54.729086208503176 23.623497346023417 C-54.76984277326355 23.48659845819477, -54.81059933802391 23.349699570366123, -54.84700132969665 23.227427435703994 C-54.880567139006246 23.067344750623732, -54.91413294831583 22.90726206554347, -54.93180651701361 22.82297295140367 C-54.949496863783146 22.68105265282201, -54.96718721055269 22.53913235424035, -54.98292246503335 22.412896727361662 C-54.986557376691046 22.325012666187547, -54.990192288348744 22.23712860501343, -55 22 C-55 22, -55 22, -55 22 C-55 12.831714816319721, -55 3.663429632639442, -55 -22 C-55 -22, -55 -22, -55 -22 C-54.995109492490485 -22.118241569978295, -54.99021898498097 -22.236483139956594, -54.98292246503335 -22.41289672736166 C-54.96480348383551 -22.558255733326465, -54.94668450263767 -22.703614739291275, -54.93180651701361 -22.82297295140367 C-54.90310012866528 -22.959879995216404, -54.87439374031695 -23.09678703902914, -54.84700132969665 -23.227427435703994 C-54.806317224737164 -23.364082935351835, -54.765633119777675 -23.500738434999676, -54.729086208503176 -23.623497346023417 C-54.69507730304837 -23.710654701024286, -54.66106839759356 -23.797812056025155, -54.57886663327529 -24.008477123264846 C-54.50817492215785 -24.15307932960049, -54.437483211040416 -24.29768153593614, -54.39736875603245 -24.379736965185366 C-54.34085117358065 -24.474585706681125, -54.28433359112885 -24.56943444817688, -54.185832391312644 -24.734740790612133 C-54.09168553563937 -24.866601666306714, -53.9975386799661 -24.998462542001292, -53.94570254698197 -25.07106356344834 C-53.88196296780869 -25.146320742370396, -53.81822338863541 -25.221577921292454, -53.67861955336566 -25.386407858128706 C-53.56506394455745 -25.499963466936908, -53.45150833574925 -25.613519075745113, -53.386407858128706 -25.678619553365657 C-53.287953577057365 -25.762006075863322, -53.189499295986025 -25.845392598360988, -53.07106356344834 -25.945702546981966 C-52.955006824655015 -26.028565465793413, -52.83895008586169 -26.11142838460486, -52.734740790612136 -26.185832391312644 C-52.623193780683884 -26.252299982041336, -52.51164677075563 -26.318767572770025, -52.379736965185366 -26.397368756032446 C-52.30093988135292 -26.43589030302911, -52.22214279752047 -26.474411850025774, -52.008477123264846 -26.578866633275286 C-51.86673897137969 -26.634173031762863, -51.72500081949454 -26.689479430250444, -51.62349734602342 -26.729086208503173 C-51.53270791828483 -26.756115392230484, -51.44191849054623 -26.78314457595779, -51.227427435703994 -26.847001329696653 C-51.11522913847231 -26.87052683870377, -51.00303084124063 -26.89405234771089, -50.82297295140367 -26.931806517013612 C-50.728362463882206 -26.943599701984446, -50.63375197636074 -26.95539288695528, -50.41289672736166 -26.982922465033347 C-50.294570992447966 -26.98781645363034, -50.17624525753426 -26.99271044222733, -50 -27 C-50 -27, -50 -27, -50 -27" stroke="none" stroke-width="0" fill="#ECECFF" style=""/><path d="M-50 -27 C-15.993602025855111 -27, 18.012795948289778 -27, 50 -27 M-50 -27 C-16.44799719709679 -27, 17.10400560580642 -27, 50 -27 M50 -27 C50 -27, 50 -27, 50 -27 M50 -27 C50 -27, 50 -27, 50 -27 M50 -27 C50.1374825066455 -26.994313681463296, 50.274965013290995 -26.98862736292659, 50.41289672736166 -26.982922465033347 M50 -27 C50.125114531837745 -26.994825224685243, 50.25022906367549 -26.989650449370483, 50.41289672736166 -26.982922465033347 M50.41289672736166 -26.982922465033347 C50.54946374026971 -26.965899404627137, 50.686030753177754 -26.948876344220924, 50.82297295140367 -26.931806517013612 M50.41289672736166 -26.982922465033347 C50.53937520584955 -26.96715693913117, 50.665853684337435 -26.95139141322899, 50.82297295140367 -26.931806517013612 M50.82297295140367 -26.931806517013612 C50.91285927910627 -26.912959336047773, 51.00274560680887 -26.894112155081938, 51.227427435703994 -26.847001329696653 M50.82297295140367 -26.931806517013612 C50.938449649112655 -26.90759359971367, 51.05392634682164 -26.88338068241373, 51.227427435703994 -26.847001329696653 M51.227427435703994 -26.847001329696653 C51.32417370129571 -26.81819871850343, 51.42091996688743 -26.78939610731021, 51.62349734602342 -26.729086208503173 M51.227427435703994 -26.847001329696653 C51.37017893617723 -26.80450236665935, 51.51293043665048 -26.762003403622046, 51.62349734602342 -26.729086208503173 M51.62349734602342 -26.729086208503173 C51.707919485068 -26.696144587626414, 51.79234162411257 -26.663202966749658, 52.008477123264846 -26.578866633275286 M51.62349734602342 -26.729086208503173 C51.70624757966497 -26.696796967139083, 51.788997813306516 -26.664507725774993, 52.008477123264846 -26.578866633275286 M52.008477123264846 -26.578866633275286 C52.103618672836866 -26.532354763864394, 52.198760222408886 -26.485842894453498, 52.379736965185366 -26.397368756032446 M52.008477123264846 -26.578866633275286 C52.151436662314836 -26.508977973260333, 52.294396201364826 -26.439089313245383, 52.379736965185366 -26.397368756032446 M52.379736965185366 -26.397368756032446 C52.48665620263356 -26.333658719158294, 52.59357544008176 -26.26994868228414, 52.734740790612136 -26.185832391312644 M52.379736965185366 -26.397368756032446 C52.51209956532573 -26.31849776576947, 52.64446216546609 -26.2396267755065, 52.734740790612136 -26.185832391312644 M52.734740790612136 -26.185832391312644 C52.85073073310144 -26.103017164145598, 52.96672067559076 -26.020201936978548, 53.07106356344834 -25.94570254698197 M52.734740790612136 -26.185832391312644 C52.808827136328986 -26.1329357571835, 52.882913482045836 -26.080039123054355, 53.07106356344834 -25.94570254698197 M53.07106356344834 -25.94570254698197 C53.1942565978065 -25.841363369251148, 53.31744963216467 -25.737024191520327, 53.386407858128706 -25.678619553365657 M53.07106356344834 -25.94570254698197 C53.19692258323724 -25.83910539477122, 53.32278160302614 -25.732508242560474, 53.386407858128706 -25.678619553365657 M53.386407858128706 -25.678619553365657 C53.44998252313887 -25.615044888355488, 53.51355718814904 -25.551470223345323, 53.67861955336566 -25.386407858128706 M53.386407858128706 -25.678619553365657 C53.45576114514737 -25.609266266346992, 53.525114432166035 -25.539912979328328, 53.67861955336566 -25.386407858128706 M53.67861955336566 -25.386407858128706 C53.75760327942023 -25.29315194899476, 53.8365870054748 -25.19989603986081, 53.94570254698197 -25.07106356344834 M53.67861955336566 -25.386407858128706 C53.77391868088746 -25.27388839088329, 53.869217808409275 -25.161368923637873, 53.94570254698197 -25.07106356344834 M53.94570254698197 -25.07106356344834 C54.018393637488565 -24.969253356608746, 54.09108472799516 -24.867443149769148, 54.185832391312644 -24.734740790612136 M53.94570254698197 -25.07106356344834 C54.01482640246383 -24.974249580123654, 54.083950257945695 -24.877435596798968, 54.185832391312644 -24.734740790612136 M54.185832391312644 -24.734740790612136 C54.27041865825798 -24.592786718630528, 54.35500492520331 -24.450832646648916, 54.39736875603245 -24.37973696518537 M54.185832391312644 -24.734740790612136 C54.26239620029562 -24.60625014024948, 54.338960009278594 -24.477759489886818, 54.39736875603245 -24.37973696518537 M54.39736875603245 -24.37973696518537 C54.44530155750132 -24.2816888526318, 54.493234358970184 -24.18364074007823, 54.57886663327529 -24.008477123264846 M54.39736875603245 -24.37973696518537 C54.456078794013145 -24.259643662988246, 54.51478883199384 -24.139550360791123, 54.57886663327529 -24.008477123264846 M54.57886663327529 -24.008477123264846 C54.636303473726265 -23.861279116555508, 54.69374031417724 -23.71408110984617, 54.729086208503176 -23.623497346023417 M54.57886663327529 -24.008477123264846 C54.62680780877941 -23.885614420196553, 54.67474898428353 -23.762751717128264, 54.729086208503176 -23.623497346023417 M54.729086208503176 -23.623497346023417 C54.765964376298214 -23.49962576396093, 54.80284254409325 -23.37575418189844, 54.84700132969665 -23.227427435703994 M54.729086208503176 -23.623497346023417 C54.77043980625749 -23.4845930597185, 54.81179340401181 -23.34568877341358, 54.84700132969665 -23.227427435703994 M54.84700132969665 -23.227427435703994 C54.87384496282718 -23.099404278889587, 54.9006885959577 -22.97138112207518, 54.93180651701361 -22.82297295140367 M54.84700132969665 -23.227427435703994 C54.868965346759055 -23.122676235038217, 54.890929363821456 -23.01792503437244, 54.93180651701361 -22.82297295140367 M54.93180651701361 -22.82297295140367 C54.95107798781332 -22.66836813072757, 54.97034945861303 -22.513763310051466, 54.98292246503335 -22.412896727361662 M54.93180651701361 -22.82297295140367 C54.94661923768738 -22.704138325479455, 54.961431958361146 -22.585303699555237, 54.98292246503335 -22.412896727361662 M54.98292246503335 -22.412896727361662 C54.988756458170386 -22.27184377806673, 54.994590451307424 -22.1307908287718, 55 -22 M54.98292246503335 -22.412896727361662 C54.98818562299168 -22.285645300219095, 54.99344878095002 -22.158393873076527, 55 -22 M55 -22 C55 -22, 55 -22, 55 -22 M55 -22 C55 -22, 55 -22, 55 -22 M55 -22 C55 -12.060506545744554, 55 -2.1210130914891074, 55 22 M55 -22 C55 -9.80133446310047, 55 2.3973310737990587, 55 22 M55 22 C55 22, 55 22, 55 22 M55 22 C55 22, 55 22, 55 22 M55 22 C54.996036987771625 22.095816801592633, 54.99207397554325 22.191633603185263, 54.98292246503335 22.412896727361662 M55 22 C54.995280851897135 22.114098481508808, 54.99056170379426 22.22819696301762, 54.98292246503335 22.412896727361662 M54.98292246503335 22.412896727361662 C54.97108544750617 22.50785886030673, 54.959248429979 22.602820993251797, 54.93180651701361 22.82297295140367 M54.98292246503335 22.412896727361662 C54.97230036551046 22.49811221553107, 54.96167826598757 22.58332770370048, 54.93180651701361 22.82297295140367 M54.93180651701361 22.82297295140367 C54.914780640659345 22.904173079113903, 54.89775476430507 22.985373206824136, 54.84700132969665 23.227427435703994 M54.93180651701361 22.82297295140367 C54.907339427458915 22.939661852180322, 54.882872337904224 23.056350752956977, 54.84700132969665 23.227427435703994 M54.84700132969665 23.227427435703994 C54.823376293218644 23.306782534392184, 54.799751256740635 23.386137633080374, 54.729086208503176 23.623497346023417 M54.84700132969665 23.227427435703994 C54.8205827332084 23.316165937059566, 54.794164136720134 23.404904438415134, 54.729086208503176 23.623497346023417 M54.729086208503176 23.623497346023417 C54.68544271720283 23.735346028416217, 54.64179922590249 23.847194710809013, 54.57886663327529 24.008477123264846 M54.729086208503176 23.623497346023417 C54.69222983202961 23.717952143829862, 54.655373455556045 23.812406941636308, 54.57886663327529 24.008477123264846 M54.57886663327529 24.008477123264846 C54.51227513722553 24.144692205624224, 54.44568364117576 24.2809072879836, 54.39736875603245 24.379736965185366 M54.57886663327529 24.008477123264846 C54.53560622599178 24.0969677007497, 54.492345818708266 24.185458278234556, 54.39736875603245 24.379736965185366 M54.39736875603245 24.379736965185366 C54.328027214397906 24.496107087050028, 54.25868567276337 24.612477208914687, 54.185832391312644 24.734740790612133 M54.39736875603245 24.379736965185366 C54.34346639167782 24.47019680442287, 54.289564027323195 24.560656643660376, 54.185832391312644 24.734740790612133 M54.185832391312644 24.734740790612133 C54.13094197166618 24.811619606692236, 54.07605155201971 24.88849842277234, 53.94570254698197 25.07106356344834 M54.185832391312644 24.734740790612133 C54.10750427019553 24.844446150054598, 54.0291761490784 24.954151509497063, 53.94570254698197 25.07106356344834 M53.94570254698197 25.07106356344834 C53.84100581780999 25.194678757995348, 53.73630908863802 25.318293952542355, 53.67861955336566 25.386407858128706 M53.94570254698197 25.07106356344834 C53.843650333034226 25.19155638477021, 53.74159811908649 25.312049206092077, 53.67861955336566 25.386407858128706 M53.67861955336566 25.386407858128706 C53.57923676100704 25.48579065048732, 53.47985396864843 25.585173442845935, 53.386407858128706 25.678619553365657 M53.67861955336566 25.386407858128706 C53.57152383076524 25.493503580729122, 53.464428108164824 25.600599303329542, 53.386407858128706 25.678619553365657 M53.386407858128706 25.678619553365657 C53.30114992397662 25.750829340151125, 53.21589198982452 25.823039126936592, 53.07106356344834 25.94570254698197 M53.386407858128706 25.678619553365657 C53.26107023160757 25.784775108004624, 53.13573260508644 25.89093066264359, 53.07106356344834 25.94570254698197 M53.07106356344834 25.94570254698197 C52.970438450290736 26.017547496863077, 52.86981333713313 26.089392446744185, 52.734740790612136 26.185832391312644 M53.07106356344834 25.94570254698197 C52.989240405526175 26.004123158850742, 52.90741724760401 26.062543770719515, 52.734740790612136 26.185832391312644 M52.734740790612136 26.185832391312644 C52.63714599446567 26.243986267168985, 52.539551198319195 26.302140143025323, 52.379736965185366 26.397368756032446 M52.734740790612136 26.185832391312644 C52.621799415961114 26.253130843072746, 52.508858041310084 26.32042929483285, 52.379736965185366 26.397368756032446 M52.379736965185366 26.397368756032446 C52.300632414840166 26.436040614248064, 52.22152786449497 26.47471247246368, 52.008477123264846 26.578866633275286 M52.379736965185366 26.397368756032446 C52.2602887421228 26.455763434040538, 52.14084051906024 26.51415811204863, 52.008477123264846 26.578866633275286 M52.008477123264846 26.578866633275286 C51.9007692533906 26.620894374517036, 51.79306138351635 26.66292211575879, 51.62349734602342 26.729086208503173 M52.008477123264846 26.578866633275286 C51.91418053024464 26.6156612780497, 51.819883937224446 26.652455922824114, 51.62349734602342 26.729086208503173 M51.62349734602342 26.729086208503173 C51.46558073182462 26.776100021510825, 51.307664117625826 26.823113834518477, 51.227427435703994 26.847001329696653 M51.62349734602342 26.729086208503173 C51.47550120032878 26.773146570073376, 51.32750505463414 26.81720693164358, 51.227427435703994 26.847001329696653 M51.227427435703994 26.847001329696653 C51.0660080921351 26.880847406818585, 50.904588748566205 26.91469348394052, 50.82297295140367 26.931806517013612 M51.227427435703994 26.847001329696653 C51.1055808965658 26.872549862292143, 50.98373435742759 26.89809839488763, 50.82297295140367 26.931806517013612 M50.82297295140367 26.931806517013612 C50.73712993493105 26.94250683785792, 50.65128691845842 26.95320715870223, 50.41289672736166 26.982922465033347 M50.82297295140367 26.931806517013612 C50.70950598498375 26.945950159627927, 50.59603901856382 26.96009380224224, 50.41289672736166 26.982922465033347 M50.41289672736166 26.982922465033347 C50.305035132975206 26.9873836535767, 50.19717353858876 26.991844842120052, 50 27 M50.41289672736166 26.982922465033347 C50.2830213739825 26.9882941493836, 50.153146020603344 26.99366583373385, 50 27 M50 27 C50 27, 50 27, 50 27 M50 27 C50 27, 50 27, 50 27 M50 27 C18.427594611919496 27, -13.144810776161009 27, -50 27 M50 27 C17.26291510263689 27, -15.474169794726222 27, -50 27 M-50 27 C-50 27, -50 27, -50 27 M-50 27 C-50 27, -50 27, -50 27 M-50 27 C-50.164911720522895 26.99317920078554, -50.32982344104579 26.986358401571085, -50.41289672736166 26.982922465033347 M-50 27 C-50.09345558774707 26.996134648298675, -50.186911175494146 26.992269296597346, -50.41289672736166 26.982922465033347 M-50.41289672736166 26.982922465033347 C-50.561982373630386 26.964338958606064, -50.7110680198991 26.945755452178783, -50.82297295140367 26.931806517013612 M-50.41289672736166 26.982922465033347 C-50.537496084037755 26.967391171420736, -50.66209544071385 26.951859877808126, -50.82297295140367 26.931806517013612 M-50.82297295140367 26.931806517013612 C-50.93249700532303 26.908841737863217, -51.042021059242394 26.88587695871282, -51.227427435703994 26.847001329696653 M-50.82297295140367 26.931806517013612 C-50.97255517960255 26.900442421981662, -51.122137407801425 26.86907832694971, -51.227427435703994 26.847001329696653 M-51.227427435703994 26.847001329696653 C-51.379808331273125 26.801635571530085, -51.53218922684225 26.75626981336352, -51.62349734602342 26.729086208503173 M-51.227427435703994 26.847001329696653 C-51.34242068921659 26.812766354832153, -51.45741394272918 26.778531379967653, -51.62349734602342 26.729086208503173 M-51.62349734602342 26.729086208503173 C-51.7703788260896 26.67177287713162, -51.917260306155775 26.614459545760067, -52.008477123264846 26.578866633275286 M-51.62349734602342 26.729086208503173 C-51.73851608148184 26.684205758658198, -51.85353481694026 26.639325308813227, -52.008477123264846 26.578866633275286 M-52.008477123264846 26.578866633275286 C-52.15365435459717 26.50789380956641, -52.2988315859295 26.436920985857537, -52.379736965185366 26.397368756032446 M-52.008477123264846 26.578866633275286 C-52.147356016228414 26.51097287957348, -52.286234909191975 26.443079125871677, -52.379736965185366 26.397368756032446 M-52.379736965185366 26.397368756032446 C-52.46281599541266 26.34786439923403, -52.545895025639965 26.298360042435615, -52.734740790612136 26.185832391312644 M-52.379736965185366 26.397368756032446 C-52.47264638489634 26.342006758537742, -52.56555580460733 26.28664476104304, -52.734740790612136 26.185832391312644 M-52.734740790612136 26.185832391312644 C-52.84649267872645 26.10604307680905, -52.958244566840754 26.02625376230546, -53.07106356344834 25.94570254698197 M-52.734740790612136 26.185832391312644 C-52.803417444802996 26.13679820269398, -52.872094098993855 26.087764014075315, -53.07106356344834 25.94570254698197 M-53.07106356344834 25.94570254698197 C-53.157148545739254 25.872792286154294, -53.243233528030174 25.799882025326617, -53.386407858128706 25.67861955336566 M-53.07106356344834 25.94570254698197 C-53.15549316157979 25.874194325018966, -53.23992275971125 25.80268610305596, -53.386407858128706 25.67861955336566 M-53.386407858128706 25.67861955336566 C-53.50202288692434 25.56300452457003, -53.61763791571996 25.447389495774402, -53.67861955336566 25.386407858128706 M-53.386407858128706 25.67861955336566 C-53.48823445302108 25.576792958473288, -53.590061047913444 25.47496636358092, -53.67861955336566 25.386407858128706 M-53.67861955336566 25.386407858128706 C-53.743481617403916 25.309825363830917, -53.808343681442174 25.23324286953313, -53.94570254698197 25.07106356344834 M-53.67861955336566 25.386407858128706 C-53.750734013186374 25.301262476311216, -53.82284847300709 25.216117094493722, -53.94570254698197 25.07106356344834 M-53.94570254698197 25.07106356344834 C-54.0181097486726 24.96965096763468, -54.09051695036323 24.86823837182102, -54.185832391312644 24.734740790612133 M-53.94570254698197 25.07106356344834 C-54.012753350980795 24.977153069379444, -54.07980415497961 24.883242575310547, -54.185832391312644 24.734740790612133 M-54.185832391312644 24.734740790612133 C-54.23882007923956 24.64581597648151, -54.291807767166475 24.556891162350894, -54.39736875603244 24.37973696518537 M-54.185832391312644 24.734740790612133 C-54.240146421087154 24.64359008765931, -54.29446045086166 24.552439384706485, -54.39736875603244 24.37973696518537 M-54.39736875603244 24.37973696518537 C-54.453663290196666 24.26458465501903, -54.509957824360896 24.149432344852688, -54.57886663327528 24.00847712326485 M-54.39736875603244 24.37973696518537 C-54.43483993014904 24.30308845342074, -54.47231110426563 24.226439941656114, -54.57886663327528 24.00847712326485 M-54.57886663327528 24.00847712326485 C-54.633565179435855 23.868296763385768, -54.688263725596435 23.72811640350669, -54.729086208503176 23.623497346023417 M-54.57886663327528 24.00847712326485 C-54.622389859304334 23.896936654347442, -54.665913085333386 23.78539618543003, -54.729086208503176 23.623497346023417 M-54.729086208503176 23.623497346023417 C-54.769764856970966 23.486860174408122, -54.81044350543875 23.350223002792823, -54.84700132969665 23.227427435703994 M-54.729086208503176 23.623497346023417 C-54.76018055294016 23.519053284159714, -54.79127489737714 23.414609222296008, -54.84700132969665 23.227427435703994 M-54.84700132969665 23.227427435703994 C-54.867373458659124 23.13026829751565, -54.8877455876216 23.033109159327303, -54.93180651701361 22.82297295140367 M-54.84700132969665 23.227427435703994 C-54.87395288573859 23.0988895709235, -54.90090444178052 22.97035170614301, -54.93180651701361 22.82297295140367 M-54.93180651701361 22.82297295140367 C-54.94551104182431 22.713028794944087, -54.95921556663501 22.603084638484503, -54.98292246503335 22.412896727361662 M-54.93180651701361 22.82297295140367 C-54.94387708738384 22.726137147486945, -54.955947657754066 22.629301343570223, -54.98292246503335 22.412896727361662 M-54.98292246503335 22.412896727361662 C-54.98869193334035 22.27340384462247, -54.99446140164735 22.133910961883284, -55 22 M-54.98292246503335 22.412896727361662 C-54.987124748114574 22.31129488991423, -54.991327031195794 22.2096930524668, -55 22 M-55 22 C-55 22, -55 22, -55 22 M-55 22 C-55 22, -55 22, -55 22 M-55 22 C-55 9.72184843504852, -55 -2.556303129902961, -55 -22 M-55 22 C-55 12.329336200645157, -55 2.658672401290314, -55 -22 M-55 -22 C-55 -22, -55 -22, -55 -22 M-55 -22 C-55 -22, -55 -22, -55 -22 M-55 -22 C-54.99419600782547 -22.14032759289753, -54.98839201565095 -22.280655185795062, -54.98292246503335 -22.41289672736166 M-55 -22 C-54.995924251454944 -22.098542514425482, -54.99184850290989 -22.197085028850964, -54.98292246503335 -22.41289672736166 M-54.98292246503335 -22.41289672736166 C-54.96910567669926 -22.523741514711464, -54.95528888836517 -22.63458630206127, -54.93180651701361 -22.82297295140367 M-54.98292246503335 -22.41289672736166 C-54.97043928651555 -22.513042668284907, -54.95795610799775 -22.613188609208155, -54.93180651701361 -22.82297295140367 M-54.93180651701361 -22.82297295140367 C-54.90925329288737 -22.930534209410165, -54.88670006876113 -23.038095467416664, -54.84700132969665 -23.227427435703994 M-54.93180651701361 -22.82297295140367 C-54.90832531894415 -22.934959920083344, -54.88484412087469 -23.046946888763014, -54.84700132969665 -23.227427435703994 M-54.84700132969665 -23.227427435703994 C-54.82164577524052 -23.312595241816517, -54.796290220784385 -23.39776304792904, -54.729086208503176 -23.623497346023417 M-54.84700132969665 -23.227427435703994 C-54.80383774614473 -23.372411357133576, -54.76067416259281 -23.517395278563157, -54.729086208503176 -23.623497346023417 M-54.729086208503176 -23.623497346023417 C-54.67758744873541 -23.755477356175415, -54.62608868896764 -23.887457366327418, -54.57886663327529 -24.008477123264846 M-54.729086208503176 -23.623497346023417 C-54.69121536765408 -23.72055199320846, -54.653344526804986 -23.817606640393507, -54.57886663327529 -24.008477123264846 M-54.57886663327529 -24.008477123264846 C-54.53060997088129 -24.107187703929316, -54.48235330848728 -24.205898284593783, -54.39736875603245 -24.379736965185366 M-54.57886663327529 -24.008477123264846 C-54.53050268992286 -24.107407150637286, -54.48213874657044 -24.20633717800973, -54.39736875603245 -24.379736965185366 M-54.39736875603245 -24.379736965185366 C-54.330382038301195 -24.492155182634065, -54.26339532056994 -24.60457340008276, -54.185832391312644 -24.734740790612133 M-54.39736875603245 -24.379736965185366 C-54.333486367976334 -24.486945445237282, -54.26960397992022 -24.594153925289202, -54.185832391312644 -24.734740790612133 M-54.185832391312644 -24.734740790612133 C-54.121881347992954 -24.824309799724666, -54.05793030467327 -24.9138788088372, -53.94570254698197 -25.07106356344834 M-54.185832391312644 -24.734740790612133 C-54.09935935150024 -24.85585381846732, -54.01288631168784 -24.976966846322505, -53.94570254698197 -25.07106356344834 M-53.94570254698197 -25.07106356344834 C-53.8690514028671 -25.161565398290254, -53.792400258752224 -25.252067233132166, -53.67861955336566 -25.386407858128706 M-53.94570254698197 -25.07106356344834 C-53.8692588643438 -25.161320448987578, -53.79281518170563 -25.251577334526814, -53.67861955336566 -25.386407858128706 M-53.67861955336566 -25.386407858128706 C-53.60963635687536 -25.455391054619, -53.54065316038507 -25.524374251109293, -53.386407858128706 -25.678619553365657 M-53.67861955336566 -25.386407858128706 C-53.563726391667196 -25.501301019827167, -53.448833229968734 -25.616194181525625, -53.386407858128706 -25.678619553365657 M-53.386407858128706 -25.678619553365657 C-53.27640615277566 -25.771786245340756, -53.166404447422615 -25.86495293731586, -53.07106356344834 -25.945702546981966 M-53.386407858128706 -25.678619553365657 C-53.27687919536876 -25.7713855987015, -53.16735053260881 -25.864151644037342, -53.07106356344834 -25.945702546981966 M-53.07106356344834 -25.945702546981966 C-52.94490572101011 -26.035777515174917, -52.818747878571884 -26.12585248336787, -52.734740790612136 -26.185832391312644 M-53.07106356344834 -25.945702546981966 C-52.977475818588786 -26.01252291247452, -52.88388807372923 -26.079343277967073, -52.734740790612136 -26.185832391312644 M-52.734740790612136 -26.185832391312644 C-52.656117159093164 -26.232681906730114, -52.57749352757419 -26.27953142214759, -52.379736965185366 -26.397368756032446 M-52.734740790612136 -26.185832391312644 C-52.634721077138785 -26.245431204263557, -52.53470136366543 -26.305030017214474, -52.379736965185366 -26.397368756032446 M-52.379736965185366 -26.397368756032446 C-52.293295870581034 -26.43962723218779, -52.206854775976694 -26.48188570834313, -52.008477123264846 -26.578866633275286 M-52.379736965185366 -26.397368756032446 C-52.286271095790774 -26.44306143532149, -52.19280522639618 -26.488754114610533, -52.008477123264846 -26.578866633275286 M-52.008477123264846 -26.578866633275286 C-51.88070219720492 -26.628724564138654, -51.75292727114499 -26.67858249500202, -51.62349734602342 -26.729086208503173 M-52.008477123264846 -26.578866633275286 C-51.89390620051817 -26.62357234605791, -51.77933527777149 -26.66827805884053, -51.62349734602342 -26.729086208503173 M-51.62349734602342 -26.729086208503173 C-51.52296977209468 -26.759014563963284, -51.422442198165946 -26.78894291942339, -51.227427435703994 -26.847001329696653 M-51.62349734602342 -26.729086208503173 C-51.53448394639953 -26.755586645751812, -51.445470546775645 -26.78208708300045, -51.227427435703994 -26.847001329696653 M-51.227427435703994 -26.847001329696653 C-51.09060353856912 -26.875690284019985, -50.95377964143425 -26.904379238343317, -50.82297295140367 -26.931806517013612 M-51.227427435703994 -26.847001329696653 C-51.09838593811254 -26.874058486434166, -50.9693444405211 -26.90111564317168, -50.82297295140367 -26.931806517013612 M-50.82297295140367 -26.931806517013612 C-50.687309956141135 -26.948716891737828, -50.5516469608786 -26.96562726646204, -50.41289672736166 -26.982922465033347 M-50.82297295140367 -26.931806517013612 C-50.688162195751985 -26.94861066018112, -50.55335144010031 -26.965414803348626, -50.41289672736166 -26.982922465033347 M-50.41289672736166 -26.982922465033347 C-50.257836119506074 -26.989335819214002, -50.10277551165048 -26.99574917339466, -50 -27 M-50.41289672736166 -26.982922465033347 C-50.30477954477013 -26.987394224783056, -50.196662362178586 -26.99186598453277, -50 -27 M-50 -27 C-50 -27, -50 -27, -50 -27 M-50 -27 C-50 -27, -50 -27, -50 -27" stroke="#9370DB" stroke-width="1.3" fill="none" stroke-dasharray="0 0" style=""/></g><g class="label" style="" transform="translate(-40, -12)"><rect/><foreignObject width="80" height="24"><div xmlns="http://www.w3.org/1999/xhtml" style="display: table-cell; white-space: nowrap; line-height: 1.5; max-width: 200px; text-align: center;"><span class="nodeLabel"><p>データ発生</p></span></div></foreignObject></g></g><g class="node default" id="flowchart-DB-1" transform="translate(312.4375, 215)"><rect class="basic label-container" style="" x="-39.4375" y="-27" width="78.875" height="54"/><g class="label" style="" transform="translate(-9.4375, -12)"><rect/><foreignObject width="18.875" height="24"><div xmlns="http://www.w3.org/1999/xhtml" style="display: table-cell; white-space: nowrap; line-height: 1.5; max-width: 200px; text-align: center;"><span class="nodeLabel"><p>DB</p></span></div></foreignObject></g></g><g class="node default" id="flowchart-input-2" transform="translate(88, 70)"><g class="basic label-container outer-path"><path d="M-26 -27 C-14.52780406119216 -27, -3.055608122384321 -27, 26 -27 C26 -27, 26 -27, 26 -27 C26.097795369506045 -26.995955153597397, 26.19559073901209 -26.99191030719479, 26.412896727361662 -26.982922465033347 C26.530420705212695 -26.96827311647153, 26.647944683063727 -26.95362376790971, 26.82297295140367 -26.931806517013612 C26.90941832944643 -26.91368082732004, 26.995863707489193 -26.895555137626467, 27.227427435703998 -26.847001329696653 C27.330432424663694 -26.81633541582574, 27.433437413623388 -26.785669501954825, 27.623497346023417 -26.729086208503173 C27.71146832344432 -26.694759826594904, 27.79943930086522 -26.660433444686635, 28.008477123264846 -26.578866633275286 C28.092474357639645 -26.53780288758593, 28.17647159201444 -26.496739141896573, 28.37973696518537 -26.397368756032446 C28.495084269256125 -26.32863668151459, 28.610431573326878 -26.25990460699673, 28.734740790612136 -26.185832391312644 C28.842006988081447 -26.10924579837089, 28.949273185550755 -26.032659205429134, 29.07106356344834 -25.94570254698197 C29.135744985437867 -25.890920177020806, 29.20042640742739 -25.83613780705964, 29.386407858128706 -25.678619553365657 C29.4784960088688 -25.586531402625564, 29.570584159608888 -25.494443251885475, 29.678619553365657 -25.386407858128706 C29.778848431197975 -25.268067845690318, 29.879077309030293 -25.149727833251927, 29.94570254698197 -25.07106356344834 C30.03178176116502 -24.95050212270656, 30.117860975348073 -24.82994068196478, 30.185832391312644 -24.734740790612136 C30.25749967020765 -24.614467578016495, 30.329166949102657 -24.49419436542085, 30.397368756032446 -24.37973696518537 C30.45956674266134 -24.252508949990883, 30.52176472929024 -24.1252809347964, 30.578866633275286 -24.008477123264846 C30.618691889655228 -23.90641373833999, 30.658517146035166 -23.80435035341513, 30.729086208503173 -23.623497346023417 C30.769872010543278 -23.486500251903287, 30.81065781258338 -23.349503157783158, 30.847001329696653 -23.227427435703994 C30.866588724843112 -23.13401086469709, 30.886176119989575 -23.040594293690187, 30.931806517013612 -22.82297295140367 C30.947608172231448 -22.696204626519208, 30.96340982744928 -22.569436301634745, 30.982922465033347 -22.412896727361662 C30.98928140678058 -22.25915169085358, 30.995640348527814 -22.1054066543455, 31 -22 C31 -22, 31 -22, 31 -22 C31 -5.0746354722847755, 31 11.850729055430449, 31 22 C31 22, 31 22, 31 22 C30.993792562431164 22.150082003197713, 30.987585124862328 22.30016400639543, 30.982922465033347 22.412896727361662 C30.963121818842225 22.5717468424082, 30.9433211726511 22.73059695745474, 30.931806517013612 22.82297295140367 C30.900799159376906 22.970853820949976, 30.869791801740202 23.11873469049628, 30.847001329696653 23.227427435703994 C30.800444481758817 23.383809131290235, 30.753887633820984 23.540190826876472, 30.729086208503173 23.623497346023417 C30.684455396405898 23.737876314764662, 30.63982458430862 23.852255283505905, 30.578866633275286 24.008477123264846 C30.53858115764505 24.090882380788397, 30.498295682014813 24.17328763831195, 30.397368756032446 24.379736965185366 C30.328111041340883 24.495966407288083, 30.258853326649323 24.612195849390805, 30.185832391312644 24.734740790612133 C30.095737697519606 24.860926260472255, 30.00564300372657 24.987111730332373, 29.94570254698197 25.07106356344834 C29.880086614580172 25.14853614844102, 29.814470682178374 25.2260087334337, 29.678619553365657 25.386407858128706 C29.569882973608205 25.495144437886157, 29.461146393850754 25.60388101764361, 29.386407858128706 25.678619553365657 C29.278352284626074 25.77013795574317, 29.17029671112344 25.86165635812068, 29.07106356344834 25.94570254698197 C28.938998203016006 26.039995401951785, 28.806932842583674 26.134288256921604, 28.734740790612136 26.185832391312644 C28.640303937952353 26.24210454129079, 28.54586708529257 26.29837669126893, 28.37973696518537 26.397368756032446 C28.30327661241464 26.434747944821996, 28.22681625964391 26.472127133611547, 28.008477123264846 26.578866633275286 C27.88301882687869 26.62782061243488, 27.757560530492537 26.676774591594477, 27.623497346023417 26.729086208503173 C27.496588779612257 26.766868525712766, 27.369680213201093 26.804650842922356, 27.227427435703998 26.847001329696653 C27.112205860825068 26.871160753364478, 26.996984285946134 26.8953201770323, 26.82297295140367 26.931806517013612 C26.689706303794676 26.94841818731432, 26.55643965618568 26.965029857615033, 26.412896727361662 26.982922465033347 C26.318936723985757 26.986808679519406, 26.224976720609853 26.990694894005465, 26 27 C26 27, 26 27, 26 27 C12.221250684097193 27, -1.5574986318056148 27, -26 27 C-26 27, -26 27, -26 27 C-26.11283877822767 26.995332953610237, -26.225677556455338 26.990665907220478, -26.412896727361662 26.982922465033347 C-26.57191362051184 26.963101029973284, -26.730930513662017 26.94327959491322, -26.82297295140367 26.931806517013612 C-26.972311699211193 26.900493474451096, -27.12165044701872 26.869180431888577, -27.227427435703994 26.847001329696653 C-27.308070678441872 26.822992796119326, -27.388713921179754 26.798984262542, -27.623497346023417 26.729086208503173 C-27.77416137577496 26.670296921664335, -27.924825405526505 26.611507634825497, -28.008477123264846 26.578866633275286 C-28.092683957919608 26.537700420252847, -28.17689079257437 26.496534207230404, -28.37973696518537 26.397368756032446 C-28.464784600721213 26.346691365084222, -28.54983223625706 26.296013974135995, -28.734740790612133 26.185832391312644 C-28.824279800435892 26.12190276707345, -28.913818810259652 26.05797314283426, -29.07106356344834 25.94570254698197 C-29.13787554036268 25.889115689046925, -29.204687517277016 25.832528831111876, -29.386407858128706 25.67861955336566 C-29.48188045184905 25.583146959645315, -29.577353045569396 25.48767436592497, -29.678619553365657 25.386407858128706 C-29.734573830120294 25.32034276840274, -29.790528106874934 25.25427767867677, -29.945702546981966 25.07106356344834 C-30.0257875585955 24.958897525763362, -30.10587257020903 24.846731488078383, -30.185832391312644 24.734740790612133 C-30.244563445653966 24.63617736398743, -30.30329449999529 24.537613937362725, -30.397368756032446 24.37973696518537 C-30.458754270633126 24.25417088808814, -30.520139785233802 24.128604810990915, -30.578866633275286 24.00847712326485 C-30.617788804121943 23.908728148209054, -30.6567109749686 23.808979173153254, -30.729086208503173 23.623497346023417 C-30.774573559525265 23.47070802725211, -30.820060910547355 23.317918708480804, -30.847001329696653 23.227427435703994 C-30.864770778212026 23.1426810497462, -30.882540226727397 23.057934663788405, -30.931806517013612 22.82297295140367 C-30.949680831374266 22.67957677810906, -30.967555145734917 22.53618060481445, -30.982922465033347 22.412896727361662 C-30.98848695020626 22.278359879869672, -30.99405143537917 22.143823032377682, -31 22 C-31 22, -31 22, -31 22 C-31 12.254785521816576, -31 2.5095710436331515, -31 -22 C-31 -22, -31 -22, -31 -22 C-30.99382896063173 -22.149201975844477, -30.987657921263466 -22.29840395168895, -30.982922465033347 -22.41289672736166 C-30.96423926759418 -22.562782141908354, -30.94555607015501 -22.71266755645505, -30.931806517013612 -22.82297295140367 C-30.902476974310005 -22.962851954613875, -30.8731474316064 -23.102730957824082, -30.847001329696653 -23.227427435703994 C-30.802338699865544 -23.377446564826634, -30.75767607003444 -23.527465693949274, -30.729086208503173 -23.623497346023417 C-30.67526196570203 -23.761437058423336, -30.62143772290089 -23.899376770823256, -30.57886663327529 -24.008477123264846 C-30.53142466260212 -24.105521225378244, -30.483982691928947 -24.20256532749164, -30.397368756032446 -24.379736965185366 C-30.327456095340633 -24.497065548496476, -30.257543434648824 -24.614394131807586, -30.185832391312644 -24.734740790612133 C-30.111274452525578 -24.839165681152966, -30.03671651373851 -24.943590571693804, -29.94570254698197 -25.07106356344834 C-29.886951719825795 -25.14043053399409, -29.82820089266962 -25.209797504539832, -29.67861955336566 -25.386407858128706 C-29.613683938291253 -25.451343473203114, -29.548748323216845 -25.51627908827752, -29.386407858128706 -25.678619553365657 C-29.266550724527995 -25.78013336727751, -29.146693590927285 -25.881647181189365, -29.07106356344834 -25.945702546981966 C-28.991804763403724 -26.002292242517747, -28.912545963359108 -26.058881938053524, -28.734740790612136 -26.185832391312644 C-28.6378279063929 -26.243579935856996, -28.540915022173667 -26.301327480401348, -28.379736965185366 -26.397368756032446 C-28.24328346707262 -26.464076806441856, -28.106829968959875 -26.530784856851266, -28.00847712326485 -26.578866633275286 C-27.876794410840116 -26.630249387109895, -27.745111698415382 -26.681632140944508, -27.62349734602342 -26.729086208503173 C-27.533914682561274 -26.755756122939378, -27.444332019099125 -26.78242603737558, -27.227427435703994 -26.847001329696653 C-27.104237838323584 -26.8728314719917, -26.981048240943174 -26.898661614286745, -26.822972951403674 -26.931806517013612 C-26.66205839131063 -26.95186449601142, -26.501143831217583 -26.971922475009226, -26.412896727361662 -26.982922465033347 C-26.25183654698265 -26.9895839633691, -26.090776366603635 -26.996245461704856, -26 -27 C-26 -27, -26 -27, -26 -27" stroke="none" stroke-width="0" fill="#ECECFF" style=""/><path d="M-26 -27 C-11.469939966687704 -27, 3.0601200666245916 -27, 26 -27 M-26 -27 C-15.168420113133596 -27, -4.336840226267192 -27, 26 -27 M26 -27 C26 -27, 26 -27, 26 -27 M26 -27 C26 -27, 26 -27, 26 -27 M26 -27 C26.13640544350736 -26.99435822912421, 26.272810887014725 -26.988716458248415, 26.412896727361662 -26.982922465033347 M26 -27 C26.082766534637848 -26.996576750805513, 26.165533069275696 -26.99315350161103, 26.412896727361662 -26.982922465033347 M26.412896727361662 -26.982922465033347 C26.56256399082878 -26.96426646009789, 26.7122312542959 -26.945610455162434, 26.82297295140367 -26.931806517013612 M26.412896727361662 -26.982922465033347 C26.5729343267782 -26.962973799069868, 26.732971926194736 -26.94302513310639, 26.82297295140367 -26.931806517013612 M26.82297295140367 -26.931806517013612 C26.97264046064099 -26.90042454042831, 27.122307969878303 -26.869042563843006, 27.227427435703998 -26.847001329696653 M26.82297295140367 -26.931806517013612 C26.93605615122093 -26.908095463446006, 27.04913935103819 -26.884384409878397, 27.227427435703998 -26.847001329696653 M27.227427435703998 -26.847001329696653 C27.342541149031323 -26.812730492391502, 27.457654862358645 -26.778459655086348, 27.623497346023417 -26.729086208503173 M27.227427435703998 -26.847001329696653 C27.338801872694265 -26.813843723189834, 27.450176309684533 -26.78068611668301, 27.623497346023417 -26.729086208503173 M27.623497346023417 -26.729086208503173 C27.77626116946326 -26.669477579624647, 27.92902499290311 -26.609868950746122, 28.008477123264846 -26.578866633275286 M27.623497346023417 -26.729086208503173 C27.730057654274347 -26.68750624719635, 27.836617962525278 -26.64592628588953, 28.008477123264846 -26.578866633275286 M28.008477123264846 -26.578866633275286 C28.102747212209103 -26.532780795005337, 28.197017301153355 -26.486694956735388, 28.37973696518537 -26.397368756032446 M28.008477123264846 -26.578866633275286 C28.086014557863127 -26.540960891265474, 28.163551992461404 -26.50305514925566, 28.37973696518537 -26.397368756032446 M28.37973696518537 -26.397368756032446 C28.471139349796573 -26.342904756541365, 28.562541734407777 -26.288440757050285, 28.734740790612136 -26.185832391312644 M28.37973696518537 -26.397368756032446 C28.477898387174683 -26.338877244459624, 28.576059809164 -26.2803857328868, 28.734740790612136 -26.185832391312644 M28.734740790612136 -26.185832391312644 C28.854099002138966 -26.100612266276734, 28.9734572136658 -26.015392141240824, 29.07106356344834 -25.94570254698197 M28.734740790612136 -26.185832391312644 C28.842510735844233 -26.108886129381364, 28.950280681076325 -26.031939867450088, 29.07106356344834 -25.94570254698197 M29.07106356344834 -25.94570254698197 C29.14660838029772 -25.88171935091121, 29.2221531971471 -25.817736154840457, 29.386407858128706 -25.678619553365657 M29.07106356344834 -25.94570254698197 C29.18729779846583 -25.847257171648195, 29.303532033483318 -25.74881179631442, 29.386407858128706 -25.678619553365657 M29.386407858128706 -25.678619553365657 C29.45844517358771 -25.606582237906654, 29.530482489046708 -25.534544922447655, 29.678619553365657 -25.386407858128706 M29.386407858128706 -25.678619553365657 C29.494208257775842 -25.57081915371852, 29.602008657422978 -25.463018754071385, 29.678619553365657 -25.386407858128706 M29.678619553365657 -25.386407858128706 C29.764945161497952 -25.284483405205883, 29.851270769630247 -25.182558952283063, 29.94570254698197 -25.07106356344834 M29.678619553365657 -25.386407858128706 C29.756538238827346 -25.294409440046586, 29.834456924289036 -25.202411021964465, 29.94570254698197 -25.07106356344834 M29.94570254698197 -25.07106356344834 C30.008934381380076 -24.98250186910515, 30.072166215778186 -24.89394017476196, 30.185832391312644 -24.734740790612136 M29.94570254698197 -25.07106356344834 C30.03399196600323 -24.94740653822478, 30.122281385024493 -24.823749513001218, 30.185832391312644 -24.734740790612136 M30.185832391312644 -24.734740790612136 C30.25358672496556 -24.621034347429717, 30.321341058618483 -24.507327904247298, 30.397368756032446 -24.37973696518537 M30.185832391312644 -24.734740790612136 C30.269483288199076 -24.594356472131487, 30.353134185085505 -24.45397215365084, 30.397368756032446 -24.37973696518537 M30.397368756032446 -24.37973696518537 C30.4648356474675 -24.24173123294458, 30.532302538902552 -24.103725500703792, 30.578866633275286 -24.008477123264846 M30.397368756032446 -24.37973696518537 C30.468024837964265 -24.23520763951379, 30.538680919896088 -24.090678313842204, 30.578866633275286 -24.008477123264846 M30.578866633275286 -24.008477123264846 C30.615367977972113 -23.91493219392338, 30.651869322668944 -23.821387264581915, 30.729086208503173 -23.623497346023417 M30.578866633275286 -24.008477123264846 C30.62449245733221 -23.89154815741439, 30.670118281389136 -23.774619191563936, 30.729086208503173 -23.623497346023417 M30.729086208503173 -23.623497346023417 C30.756210173676664 -23.532389553019126, 30.783334138850154 -23.44128176001483, 30.847001329696653 -23.227427435703994 M30.729086208503173 -23.623497346023417 C30.760063288105144 -23.519447169797257, 30.791040367707115 -23.415396993571097, 30.847001329696653 -23.227427435703994 M30.847001329696653 -23.227427435703994 C30.876156199901626 -23.088381483838777, 30.905311070106595 -22.949335531973556, 30.931806517013612 -22.82297295140367 M30.847001329696653 -23.227427435703994 C30.878911482896488 -23.07524093668541, 30.910821636096323 -22.923054437666824, 30.931806517013612 -22.82297295140367 M30.931806517013612 -22.82297295140367 C30.942273760275857 -22.738999793135076, 30.9527410035381 -22.65502663486648, 30.982922465033347 -22.412896727361662 M30.931806517013612 -22.82297295140367 C30.95074448873196 -22.671043617523846, 30.969682460450308 -22.51911428364402, 30.982922465033347 -22.412896727361662 M30.982922465033347 -22.412896727361662 C30.98758387632036 -22.300194193356987, 30.99224528760738 -22.18749165935231, 31 -22 M30.982922465033347 -22.412896727361662 C30.98818303043026 -22.28570798257507, 30.993443595827173 -22.15851923778847, 31 -22 M31 -22 C31 -22, 31 -22, 31 -22 M31 -22 C31 -22, 31 -22, 31 -22 M31 -22 C31 -12.425978915708736, 31 -2.8519578314174723, 31 22 M31 -22 C31 -10.013773817689685, 31 1.9724523646206293, 31 22 M31 22 C31 22, 31 22, 31 22 M31 22 C31 22, 31 22, 31 22 M31 22 C30.995566749598073 22.107186112404666, 30.991133499196145 22.214372224809328, 30.982922465033347 22.412896727361662 M31 22 C30.99432086827753 22.13730874549766, 30.98864173655506 22.274617490995315, 30.982922465033347 22.412896727361662 M30.982922465033347 22.412896727361662 C30.972159050941265 22.4992459076014, 30.961395636849186 22.58559508784114, 30.931806517013612 22.82297295140367 M30.982922465033347 22.412896727361662 C30.97198729512113 22.5006238137326, 30.961052125208912 22.588350900103535, 30.931806517013612 22.82297295140367 M30.931806517013612 22.82297295140367 C30.90650393208464 22.943646512334134, 30.88120134715567 23.064320073264593, 30.847001329696653 23.227427435703994 M30.931806517013612 22.82297295140367 C30.91359023372832 22.909850390097183, 30.89537395044303 22.996727828790696, 30.847001329696653 23.227427435703994 M30.847001329696653 23.227427435703994 C30.80729425154075 23.360801160168467, 30.76758717338485 23.49417488463294, 30.729086208503173 23.623497346023417 M30.847001329696653 23.227427435703994 C30.817081128792264 23.327927618962896, 30.787160927887875 23.428427802221798, 30.729086208503173 23.623497346023417 M30.729086208503173 23.623497346023417 C30.672460109147103 23.768617601376825, 30.61583400979103 23.913737856730233, 30.578866633275286 24.008477123264846 M30.729086208503173 23.623497346023417 C30.687418315781358 23.730283003177814, 30.645750423059543 23.83706866033221, 30.578866633275286 24.008477123264846 M30.578866633275286 24.008477123264846 C30.537793660001796 24.09249323296468, 30.496720686728306 24.176509342664513, 30.397368756032446 24.379736965185366 M30.578866633275286 24.008477123264846 C30.52487291817146 24.11892303281853, 30.470879203067636 24.22936894237221, 30.397368756032446 24.379736965185366 M30.397368756032446 24.379736965185366 C30.342882739105775 24.471176299821078, 30.2883967221791 24.56261563445679, 30.185832391312644 24.734740790612133 M30.397368756032446 24.379736965185366 C30.354832787680515 24.451121530686283, 30.312296819328587 24.522506096187204, 30.185832391312644 24.734740790612133 M30.185832391312644 24.734740790612133 C30.129178360239496 24.81408969818328, 30.072524329166352 24.893438605754433, 29.94570254698197 25.07106356344834 M30.185832391312644 24.734740790612133 C30.10597115010936 24.84659341833733, 30.02610990890608 24.95844604606253, 29.94570254698197 25.07106356344834 M29.94570254698197 25.07106356344834 C29.843048932577066 25.19226645694821, 29.740395318172162 25.31346935044808, 29.678619553365657 25.386407858128706 M29.94570254698197 25.07106356344834 C29.89100461567877 25.135645288902793, 29.83630668437557 25.200227014357246, 29.678619553365657 25.386407858128706 M29.678619553365657 25.386407858128706 C29.610179734268588 25.454847677225775, 29.541739915171522 25.52328749632284, 29.386407858128706 25.678619553365657 M29.678619553365657 25.386407858128706 C29.616547670720017 25.448479740774346, 29.554475788074377 25.510551623419985, 29.386407858128706 25.678619553365657 M29.386407858128706 25.678619553365657 C29.275971734758745 25.772154178632704, 29.165535611388783 25.865688803899754, 29.07106356344834 25.94570254698197 M29.386407858128706 25.678619553365657 C29.29451991715242 25.756444669491703, 29.202631976176132 25.83426978561775, 29.07106356344834 25.94570254698197 M29.07106356344834 25.94570254698197 C28.966120240616462 26.020630639310216, 28.86117691778458 26.095558731638462, 28.734740790612136 26.185832391312644 M29.07106356344834 25.94570254698197 C28.94766860715133 26.033804852386137, 28.82427365085432 26.121907157790304, 28.734740790612136 26.185832391312644 M28.734740790612136 26.185832391312644 C28.602671739554562 26.26452846428912, 28.47060268849699 26.343224537265595, 28.37973696518537 26.397368756032446 M28.734740790612136 26.185832391312644 C28.597744259704925 26.267464604972588, 28.460747728797713 26.349096818632532, 28.37973696518537 26.397368756032446 M28.37973696518537 26.397368756032446 C28.26355808581938 26.454165149297875, 28.14737920645339 26.510961542563305, 28.008477123264846 26.578866633275286 M28.37973696518537 26.397368756032446 C28.241876498223935 26.464764631599735, 28.1040160312625 26.532160507167024, 28.008477123264846 26.578866633275286 M28.008477123264846 26.578866633275286 C27.8676375029991 26.633822423636996, 27.72679788273335 26.688778213998702, 27.623497346023417 26.729086208503173 M28.008477123264846 26.578866633275286 C27.88027267359434 26.62889216477158, 27.752068223923835 26.678917696267877, 27.623497346023417 26.729086208503173 M27.623497346023417 26.729086208503173 C27.49576602423863 26.767113470600183, 27.368034702453844 26.805140732697197, 27.227427435703998 26.847001329696653 M27.623497346023417 26.729086208503173 C27.466015564719818 26.77597056614903, 27.30853378341622 26.822854923794893, 27.227427435703998 26.847001329696653 M27.227427435703998 26.847001329696653 C27.108770671213446 26.871881036881636, 26.99011390672289 26.896760744066622, 26.82297295140367 26.931806517013612 M27.227427435703998 26.847001329696653 C27.08013308970819 26.8778857062774, 26.93283874371238 26.908770082858148, 26.82297295140367 26.931806517013612 M26.82297295140367 26.931806517013612 C26.721328048512902 26.944476540945807, 26.61968314562213 26.957146564878, 26.412896727361662 26.982922465033347 M26.82297295140367 26.931806517013612 C26.69126655905402 26.948223701699067, 26.559560166704372 26.964640886384522, 26.412896727361662 26.982922465033347 M26.412896727361662 26.982922465033347 C26.262787555307412 26.989131026314404, 26.11267838325316 26.995339587595456, 26 27 M26.412896727361662 26.982922465033347 C26.29023744933477 26.98799569029932, 26.167578171307884 26.993068915565292, 26 27 M26 27 C26 27, 26 27, 26 27 M26 27 C26 27, 26 27, 26 27 M26 27 C13.784963509292258 27, 1.569927018584515 27, -26 27 M26 27 C5.271079585030826 27, -15.457840829938348 27, -26 27 M-26 27 C-26 27, -26 27, -26 27 M-26 27 C-26 27, -26 27, -26 27 M-26 27 C-26.14723533708466 26.99391030141252, -26.294470674169318 26.987820602825035, -26.412896727361662 26.982922465033347 M-26 27 C-26.1453877544936 26.99398671799374, -26.290775508987203 26.98797343598748, -26.412896727361662 26.982922465033347 M-26.412896727361662 26.982922465033347 C-26.53958252637565 26.96713109665454, -26.666268325389634 26.951339728275734, -26.82297295140367 26.931806517013612 M-26.412896727361662 26.982922465033347 C-26.532839875845685 26.9679715671666, -26.65278302432971 26.953020669299857, -26.82297295140367 26.931806517013612 M-26.82297295140367 26.931806517013612 C-26.93394303375254 26.90853853758583, -27.04491311610141 26.885270558158048, -27.227427435703994 26.847001329696653 M-26.82297295140367 26.931806517013612 C-26.948047795696183 26.905581080009952, -27.073122639988693 26.879355643006292, -27.227427435703994 26.847001329696653 M-27.227427435703994 26.847001329696653 C-27.320115603079312 26.819406866687714, -27.412803770454634 26.79181240367878, -27.623497346023417 26.729086208503173 M-27.227427435703994 26.847001329696653 C-27.353628712252558 26.809429581802462, -27.479829988801118 26.771857833908275, -27.623497346023417 26.729086208503173 M-27.623497346023417 26.729086208503173 C-27.733418763297735 26.686194738385666, -27.843340180572056 26.643303268268156, -28.008477123264846 26.578866633275286 M-27.623497346023417 26.729086208503173 C-27.727936863984432 26.688333782135413, -27.832376381945444 26.64758135576765, -28.008477123264846 26.578866633275286 M-28.008477123264846 26.578866633275286 C-28.127936931633464 26.52046629155618, -28.24739674000208 26.462065949837072, -28.37973696518537 26.397368756032446 M-28.008477123264846 26.578866633275286 C-28.144308333205633 26.512462801015786, -28.28013954314642 26.446058968756283, -28.37973696518537 26.397368756032446 M-28.37973696518537 26.397368756032446 C-28.464921289147398 26.346609916461126, -28.55010561310943 26.295851076889807, -28.734740790612133 26.185832391312644 M-28.37973696518537 26.397368756032446 C-28.466959871065185 26.345395185302795, -28.554182776945005 26.29342161457315, -28.734740790612133 26.185832391312644 M-28.734740790612133 26.185832391312644 C-28.83909668789741 26.111323712763227, -28.94345258518269 26.03681503421381, -29.07106356344834 25.94570254698197 M-28.734740790612133 26.185832391312644 C-28.816248669933447 26.1276368840382, -28.897756549254762 26.069441376763756, -29.07106356344834 25.94570254698197 M-29.07106356344834 25.94570254698197 C-29.143358891698067 25.884471527365832, -29.21565421994779 25.823240507749695, -29.386407858128706 25.67861955336566 M-29.07106356344834 25.94570254698197 C-29.18842811949186 25.846299838572975, -29.30579267553538 25.746897130163983, -29.386407858128706 25.67861955336566 M-29.386407858128706 25.67861955336566 C-29.502150202011176 25.56287720948319, -29.617892545893646 25.447134865600717, -29.678619553365657 25.386407858128706 M-29.386407858128706 25.67861955336566 C-29.48743238434928 25.577595027145083, -29.588456910569857 25.47657050092451, -29.678619553365657 25.386407858128706 M-29.678619553365657 25.386407858128706 C-29.76277572311382 25.287044856265847, -29.84693189286198 25.18768185440299, -29.945702546981966 25.07106356344834 M-29.678619553365657 25.386407858128706 C-29.763023803086053 25.286751948796116, -29.847428052806446 25.18709603946353, -29.945702546981966 25.07106356344834 M-29.945702546981966 25.07106356344834 C-30.00152266183518 24.99288262821392, -30.05734277668839 24.914701692979502, -30.185832391312644 24.734740790612133 M-29.945702546981966 25.07106356344834 C-30.0338472240539 24.94760926193819, -30.121991901125835 24.82415496042804, -30.185832391312644 24.734740790612133 M-30.185832391312644 24.734740790612133 C-30.244210765899528 24.636769236983554, -30.30258914048641 24.53879768335498, -30.397368756032446 24.37973696518537 M-30.185832391312644 24.734740790612133 C-30.254883339179468 24.618858348013973, -30.32393428704629 24.502975905415813, -30.397368756032446 24.37973696518537 M-30.397368756032446 24.37973696518537 C-30.462710349766233 24.246078598878512, -30.52805194350002 24.112420232571655, -30.578866633275286 24.00847712326485 M-30.397368756032446 24.37973696518537 C-30.44720164533914 24.277802160836714, -30.497034534645827 24.175867356488062, -30.578866633275286 24.00847712326485 M-30.578866633275286 24.00847712326485 C-30.62739827152073 23.884101193879157, -30.67592990976617 23.759725264493465, -30.729086208503173 23.623497346023417 M-30.578866633275286 24.00847712326485 C-30.619351922558295 23.904722218978353, -30.659837211841303 23.800967314691853, -30.729086208503173 23.623497346023417 M-30.729086208503173 23.623497346023417 C-30.758291657880385 23.525397970823768, -30.7874971072576 23.42729859562412, -30.847001329696653 23.227427435703994 M-30.729086208503173 23.623497346023417 C-30.77078645720398 23.483428679714493, -30.812486705904785 23.34336001340557, -30.847001329696653 23.227427435703994 M-30.847001329696653 23.227427435703994 C-30.8740809799749 23.09827866149769, -30.901160630253145 22.969129887291388, -30.931806517013612 22.82297295140367 M-30.847001329696653 23.227427435703994 C-30.868001348184443 23.127273755056713, -30.88900136667223 23.02712007440943, -30.931806517013612 22.82297295140367 M-30.931806517013612 22.82297295140367 C-30.94414320720357 22.72400220888079, -30.95647989739353 22.62503146635791, -30.982922465033347 22.412896727361662 M-30.931806517013612 22.82297295140367 C-30.946079911144132 22.708465057173736, -30.96035330527465 22.593957162943806, -30.982922465033347 22.412896727361662 M-30.982922465033347 22.412896727361662 C-30.986830813952313 22.3184015627387, -30.99073916287128 22.223906398115737, -31 22 M-30.982922465033347 22.412896727361662 C-30.987218498075887 22.309028224830936, -30.991514531118426 22.205159722300213, -31 22 M-31 22 C-31 22, -31 22, -31 22 M-31 22 C-31 22, -31 22, -31 22 M-31 22 C-31 8.375556899998342, -31 -5.248886200003316, -31 -22 M-31 22 C-31 9.237684069568296, -31 -3.5246318608634084, -31 -22 M-31 -22 C-31 -22, -31 -22, -31 -22 M-31 -22 C-31 -22, -31 -22, -31 -22 M-31 -22 C-30.99364729296603 -22.153594295039362, -30.987294585932062 -22.307188590078724, -30.982922465033347 -22.41289672736166 M-31 -22 C-30.996449284028945 -22.085848397154628, -30.99289856805789 -22.17169679430926, -30.982922465033347 -22.41289672736166 M-30.982922465033347 -22.41289672736166 C-30.963864139321313 -22.565791597697174, -30.944805813609275 -22.71868646803269, -30.931806517013612 -22.82297295140367 M-30.982922465033347 -22.41289672736166 C-30.969346993120826 -22.521805560654276, -30.955771521208305 -22.63071439394689, -30.931806517013612 -22.82297295140367 M-30.931806517013612 -22.82297295140367 C-30.89896467180281 -22.979602893373624, -30.866122826592008 -23.136232835343577, -30.847001329696653 -23.227427435703994 M-30.931806517013612 -22.82297295140367 C-30.907023768784406 -22.941167297430244, -30.882241020555195 -23.059361643456818, -30.847001329696653 -23.227427435703994 M-30.847001329696653 -23.227427435703994 C-30.82053077383299 -23.316340465525027, -30.794060217969324 -23.40525349534606, -30.729086208503173 -23.623497346023417 M-30.847001329696653 -23.227427435703994 C-30.81490755815748 -23.33522851402774, -30.782813786618306 -23.443029592351486, -30.729086208503173 -23.623497346023417 M-30.729086208503173 -23.623497346023417 C-30.691500661674056 -23.719820847296937, -30.65391511484494 -23.816144348570457, -30.57886663327529 -24.008477123264846 M-30.729086208503173 -23.623497346023417 C-30.69340051156675 -23.714951949302968, -30.657714814630328 -23.80640655258252, -30.57886663327529 -24.008477123264846 M-30.57886663327529 -24.008477123264846 C-30.520979373946233 -24.126887404829528, -30.46309211461718 -24.24529768639421, -30.397368756032446 -24.379736965185366 M-30.57886663327529 -24.008477123264846 C-30.53334005898631 -24.10160321945105, -30.487813484697334 -24.19472931563725, -30.397368756032446 -24.379736965185366 M-30.397368756032446 -24.379736965185366 C-30.33389458884554 -24.486260362223874, -30.270420421658635 -24.592783759262378, -30.185832391312644 -24.734740790612133 M-30.397368756032446 -24.379736965185366 C-30.344627621324396 -24.46824800962686, -30.291886486616345 -24.55675905406835, -30.185832391312644 -24.734740790612133 M-30.185832391312644 -24.734740790612133 C-30.107861118154023 -24.843946353391598, -30.029889844995402 -24.953151916171066, -29.94570254698197 -25.07106356344834 M-30.185832391312644 -24.734740790612133 C-30.116853196359017 -24.831352164260743, -30.04787400140539 -24.927963537909353, -29.94570254698197 -25.07106356344834 M-29.94570254698197 -25.07106356344834 C-29.85935481240164 -25.173014141018992, -29.773007077821312 -25.274964718589644, -29.67861955336566 -25.386407858128706 M-29.94570254698197 -25.07106356344834 C-29.88564387791824 -25.14197470001644, -29.825585208854513 -25.21288583658454, -29.67861955336566 -25.386407858128706 M-29.67861955336566 -25.386407858128706 C-29.586032935373645 -25.47899447612072, -29.49344631738163 -25.571581094112734, -29.386407858128706 -25.678619553365657 M-29.67861955336566 -25.386407858128706 C-29.566113687455328 -25.49891372403904, -29.453607821544995 -25.611419589949367, -29.386407858128706 -25.678619553365657 M-29.386407858128706 -25.678619553365657 C-29.293815459003024 -25.75704131510918, -29.201223059877343 -25.835463076852704, -29.07106356344834 -25.945702546981966 M-29.386407858128706 -25.678619553365657 C-29.27562280716098 -25.772449705233118, -29.16483775619325 -25.86627985710058, -29.07106356344834 -25.945702546981966 M-29.07106356344834 -25.945702546981966 C-28.991669148770203 -26.002389069504993, -28.91227473409207 -26.05907559202802, -28.734740790612136 -26.185832391312644 M-29.07106356344834 -25.945702546981966 C-28.98164151884551 -26.00954865965857, -28.89221947424268 -26.073394772335178, -28.734740790612136 -26.185832391312644 M-28.734740790612136 -26.185832391312644 C-28.66138754117385 -26.22954144066699, -28.58803429173556 -26.273250490021336, -28.379736965185366 -26.397368756032446 M-28.734740790612136 -26.185832391312644 C-28.6099173406216 -26.26021102317961, -28.48509389063106 -26.334589655046575, -28.379736965185366 -26.397368756032446 M-28.379736965185366 -26.397368756032446 C-28.289275514319975 -26.441592664601288, -28.198814063454584 -26.48581657317013, -28.00847712326485 -26.578866633275286 M-28.379736965185366 -26.397368756032446 C-28.28376110265397 -26.444288496195803, -28.187785240122572 -26.491208236359157, -28.00847712326485 -26.578866633275286 M-28.00847712326485 -26.578866633275286 C-27.88859130001653 -26.625646226669133, -27.768705476768208 -26.672425820062983, -27.62349734602342 -26.729086208503173 M-28.00847712326485 -26.578866633275286 C-27.909763066644363 -26.617384977695366, -27.811049010023876 -26.655903322115446, -27.62349734602342 -26.729086208503173 M-27.62349734602342 -26.729086208503173 C-27.531945157616388 -26.7563424759203, -27.440392969209356 -26.783598743337425, -27.227427435703994 -26.847001329696653 M-27.62349734602342 -26.729086208503173 C-27.528210299813498 -26.757454391264016, -27.432923253603576 -26.785822574024856, -27.227427435703994 -26.847001329696653 M-27.227427435703994 -26.847001329696653 C-27.077799287622973 -26.878375053115377, -26.928171139541952 -26.9097487765341, -26.822972951403674 -26.931806517013612 M-27.227427435703994 -26.847001329696653 C-27.068800641849005 -26.880261870718055, -26.91017384799402 -26.913522411739457, -26.822972951403674 -26.931806517013612 M-26.822972951403674 -26.931806517013612 C-26.67662869074842 -26.950048310080536, -26.530284430093165 -26.968290103147464, -26.412896727361662 -26.982922465033347 M-26.822972951403674 -26.931806517013612 C-26.730990082080172 -26.943272169717645, -26.639007212756674 -26.954737822421674, -26.412896727361662 -26.982922465033347 M-26.412896727361662 -26.982922465033347 C-26.283779595270584 -26.98826278911915, -26.154662463179505 -26.993603113204955, -26 -27 M-26.412896727361662 -26.982922465033347 C-26.302806035852313 -26.98747584971568, -26.192715344342965 -26.99202923439801, -26 -27 M-26 -27 C-26 -27, -26 -27, -26 -27 M-26 -27 C-26 -27, -26 -27, -26 -27" stroke="#9370DB" stroke-width="1.3" fill="none" stroke-dasharray="0 0" style=""/></g><g class="label" style="" transform="translate(-16, -12)"><rect/><foreignObject width="32" height="24"><div xmlns="http://www.w3.org/1999/xhtml" style="display: table-cell; white-space: nowrap; line-height: 1.5; max-width: 200px; text-align: center;"><span class="nodeLabel"><p>入力</p></span></div></foreignObject></g></g><g class="node default" id="flowchart-LLM-5" transform="translate(534.65625, 70)"><rect class="basic label-container" style="" x="-43.78125" y="-27" width="87.5625" height="54"/><g class="label" style="" transform="translate(-13.78125, -12)"><rect/><foreignObject width="27.5625" height="24"><div xmlns="http://www.w3.org/1999/xhtml" style="display: table-cell; white-space: nowrap; line-height: 1.5; max-width: 200px; text-align: center;"><span class="nodeLabel"><p>LLM</p></span></div></foreignObject></g></g><g class="node default" id="flowchart-USER-8" transform="translate(708.4140625, 70)"><rect class="basic label-container" style="" x="-47.9765625" y="-27" width="95.953125" height="54"/><g class="label" style="" transform="translate(-17.9765625, -12)"><rect/><foreignObject width="35.953125" height="24"><div xmlns="http://www.w3.org/1999/xhtml" style="display: table-cell; white-space: nowrap; line-height: 1.5; max-width: 200px; text-align: center;"><span class="nodeLabel"><p>USER</p></span></div></foreignObject></g></g></g></g></g></svg>