<?xml version="1.0" encoding="UTF-8"?>
<!DOCTYPE svg PUBLIC "-//W3C//DTD SVG 1.1//EN" "http://www.w3.org/Graphics/SVG/1.1/DTD/svg11.dtd">
<svg version="1.2" width="49.02mm" height="45.03mm" viewBox="1100 1799 4902 4503" preserveAspectRatio="xMidYMid" fill-rule="evenodd" stroke-width="28.222" stroke-linejoin="round" xmlns="http://www.w3.org/2000/svg" xmlns:ooo="http://xml.openoffice.org/svg/export" xmlns:xlink="http://www.w3.org/1999/xlink" xmlns:presentation="http://sun.com/xmlns/staroffice/presentation" xmlns:smil="http://www.w3.org/2001/SMIL20/" xmlns:anim="urn:oasis:names:tc:opendocument:xmlns:animation:1.0" xmlns:svg="urn:oasis:names:tc:opendocument:xmlns:svg-compatible:1.0" xml:space="preserve">
 <defs class="EmbeddedBulletChars">
  <g id="bullet-char-template-57356" transform="scale(0.00048828125,-0.00048828125)">
   <path d="M 580,1141 L 1163,571 580,0 -4,571 580,1141 Z"/>
  </g>
  <g id="bullet-char-template-57354" transform="scale(0.00048828125,-0.00048828125)">
   <path d="M 8,1128 L 1137,1128 1137,0 8,0 8,1128 Z"/>
  </g>
  <g id="bullet-char-template-10146" transform="scale(0.00048828125,-0.00048828125)">
   <path d="M 174,0 L 602,739 174,1481 1456,739 174,0 Z M 1358,739 L 309,1346 659,739 1358,739 Z"/>
  </g>
  <g id="bullet-char-template-10132" transform="scale(0.00048828125,-0.00048828125)">
   <path d="M 2015,739 L 1276,0 717,0 1260,543 174,543 174,936 1260,936 717,1481 1274,1481 2015,739 Z"/>
  </g>
  <g id="bullet-char-template-10007" transform="scale(0.00048828125,-0.00048828125)">
   <path d="M 0,-2 C -7,14 -16,27 -25,37 L 356,567 C 262,823 215,952 215,954 215,979 228,992 255,992 264,992 276,990 289,987 310,991 331,999 354,1012 L 381,999 492,748 772,1049 836,1024 860,1049 C 881,1039 901,1025 922,1006 886,937 835,863 770,784 769,783 710,716 594,584 L 774,223 C 774,196 753,168 711,139 L 727,119 C 717,90 699,76 672,76 641,76 570,178 457,381 L 164,-76 C 142,-110 111,-127 72,-127 30,-127 9,-110 8,-76 1,-67 -2,-52 -2,-32 -2,-23 -1,-13 0,-2 Z"/>
  </g>
  <g id="bullet-char-template-10004" transform="scale(0.00048828125,-0.00048828125)">
   <path d="M 285,-33 C 182,-33 111,30 74,156 52,228 41,333 41,471 41,549 55,616 82,672 116,743 169,778 240,778 293,778 328,747 346,684 L 369,508 C 377,444 397,411 428,410 L 1163,1116 C 1174,1127 1196,1133 1229,1133 1271,1133 1292,1118 1292,1087 L 1292,965 C 1292,929 1282,901 1262,881 L 442,47 C 390,-6 338,-33 285,-33 Z"/>
  </g>
  <g id="bullet-char-template-9679" transform="scale(0.00048828125,-0.00048828125)">
   <path d="M 813,0 C 632,0 489,54 383,161 276,268 223,411 223,592 223,773 276,916 383,1023 489,1130 632,1184 813,1184 992,1184 1136,1130 1245,1023 1353,916 1407,772 1407,592 1407,412 1353,268 1245,161 1136,54 992,0 813,0 Z"/>
  </g>
  <g id="bullet-char-template-8226" transform="scale(0.00048828125,-0.00048828125)">
   <path d="M 346,457 C 273,457 209,483 155,535 101,586 74,649 74,723 74,796 101,859 155,911 209,963 273,989 346,989 419,989 480,963 531,910 582,859 608,796 608,723 608,648 583,586 532,535 482,483 420,457 346,457 Z"/>
  </g>
  <g id="bullet-char-template-8211" transform="scale(0.00048828125,-0.00048828125)">
   <path d="M -4,459 L 1135,459 1135,606 -4,606 -4,459 Z"/>
  </g>
  <g id="bullet-char-template-61548" transform="scale(0.00048828125,-0.00048828125)">
   <path d="M 173,740 C 173,903 231,1043 346,1159 462,1274 601,1332 765,1332 928,1332 1067,1274 1183,1159 1299,1043 1357,903 1357,740 1357,577 1299,437 1183,322 1067,206 928,148 765,148 601,148 462,206 346,322 231,437 173,577 173,740 Z"/>
  </g>
 </defs>
 <g class="Page">
  <g class="com.sun.star.drawing.CustomShape">
   <g id="id3">
    <rect class="BoundingBox" stroke="none" fill="none" x="1100" y="2600" width="4902" height="3702"/>
    <path fill="rgb(204,204,204)" stroke="none" d="M 6001,4451 C 6001,4775 5888,5094 5673,5376 5458,5657 5148,5891 4776,6053 4403,6215 3981,6301 3551,6301 3120,6301 2698,6215 2325,6053 1953,5891 1643,5657 1428,5376 1213,5094 1100,4775 1100,4451 1100,4126 1213,3807 1428,3525 1643,3244 1953,3010 2325,2848 2698,2686 3120,2600 3550,2600 3981,2600 4403,2686 4776,2848 5148,3010 5458,3244 5673,3525 5888,3807 6001,4126 6001,4450 L 6001,4451 Z "/>
   </g>
  </g>
  <g class="com.sun.star.drawing.CustomShape">
   <g id="id4">
    <rect class="BoundingBox" stroke="none" fill="none" x="2400" y="1799" width="2302" height="1703"/>
    <path fill="rgb(128,128,128)" stroke="none" d="M 4701,2650 C 4701,2800 4648,2946 4547,3076 4446,3205 4301,3312 4126,3387 3951,3462 3752,3501 3551,3501 3349,3501 3150,3462 2975,3387 2800,3312 2655,3205 2554,3076 2453,2946 2400,2800 2400,2651 2400,2501 2453,2355 2554,2225 2655,2096 2800,1989 2975,1914 3150,1839 3349,1800 3550,1800 3752,1800 3951,1839 4126,1914 4301,1989 4446,2096 4547,2225 4648,2355 4701,2501 4701,2650 L 4701,2650 Z "/>
   </g>
  </g>
  <g class="com.sun.star.drawing.CustomShape">
   <g id="id5">
    <rect class="BoundingBox" stroke="none" fill="none" x="2379" y="2536" width="843" height="760"/>
    <path fill="rgb(238,238,238)" stroke="none" d="M 2607,3181 C 2673,3228 2747,3263 2820,3281 2894,3299 2965,3299 3028,3283 3090,3266 3140,3233 3174,3187 3207,3140 3223,3082 3220,3018 3216,2954 3193,2886 3153,2821 3113,2757 3058,2698 2992,2650 2926,2603 2853,2568 2779,2550 2705,2532 2634,2531 2572,2548 2510,2565 2459,2598 2426,2644 2392,2691 2376,2749 2380,2813 2383,2877 2406,2945 2446,3009 2486,3074 2542,3133 2607,3181 L 2607,3181 Z "/>
   </g>
  </g>
  <g class="com.sun.star.drawing.CustomShape">
   <g id="id6">
    <rect class="BoundingBox" stroke="none" fill="none" x="3772" y="2257" width="357" height="357"/>
    <path fill="rgb(0,0,0)" stroke="none" d="M 4101,2435 C 4101,2462 4094,2488 4081,2511 4068,2533 4048,2553 4026,2566 4003,2579 3977,2586 3950,2586 3923,2586 3897,2579 3875,2566 3852,2553 3832,2533 3819,2511 3806,2488 3799,2462 3799,2435 3799,2408 3806,2382 3819,2360 3832,2337 3852,2317 3875,2304 3897,2291 3923,2284 3950,2284 3977,2284 4003,2291 4026,2304 4048,2317 4068,2337 4081,2360 4094,2382 4101,2408 4101,2435 L 4101,2435 Z "/>
    <path fill="none" stroke="rgb(255,56,56)" stroke-width="53" stroke-linejoin="round" d="M 4101,2435 C 4101,2462 4094,2488 4081,2511 4068,2533 4048,2553 4026,2566 4003,2579 3977,2586 3950,2586 3923,2586 3897,2579 3875,2566 3852,2553 3832,2533 3819,2511 3806,2488 3799,2462 3799,2435 3799,2408 3806,2382 3819,2360 3832,2337 3852,2317 3875,2304 3897,2291 3923,2284 3950,2284 3977,2284 4003,2291 4026,2304 4048,2317 4068,2337 4081,2360 4094,2382 4101,2408 4101,2435 Z "/>
   </g>
  </g>
  <g class="com.sun.star.drawing.CustomShape">
   <g id="id7">
    <rect class="BoundingBox" stroke="none" fill="none" x="2884" y="2256" width="357" height="357"/>
    <path fill="rgb(0,0,0)" stroke="none" d="M 2911,2434 C 2911,2461 2918,2487 2931,2510 2944,2532 2964,2552 2987,2565 3009,2578 3035,2585 3062,2585 3089,2585 3115,2578 3138,2565 3160,2552 3180,2532 3193,2510 3206,2487 3213,2461 3213,2434 3213,2407 3206,2381 3193,2359 3180,2336 3160,2316 3138,2303 3115,2290 3089,2283 3062,2283 3035,2283 3009,2290 2987,2303 2964,2316 2944,2336 2931,2359 2918,2381 2911,2407 2911,2434 L 2911,2434 Z "/>
    <path fill="none" stroke="rgb(255,56,56)" stroke-width="53" stroke-linejoin="round" d="M 2911,2434 C 2911,2461 2918,2487 2931,2510 2944,2532 2964,2552 2987,2565 3009,2578 3035,2585 3062,2585 3089,2585 3115,2578 3138,2565 3160,2552 3180,2532 3193,2510 3206,2487 3213,2461 3213,2434 3213,2407 3206,2381 3193,2359 3180,2336 3160,2316 3138,2303 3115,2290 3089,2283 3062,2283 3035,2283 3009,2290 2987,2303 2964,2316 2944,2336 2931,2359 2918,2381 2911,2407 2911,2434 Z "/>
   </g>
  </g>
  <g class="com.sun.star.drawing.CustomShape">
   <g id="id8">
    <rect class="BoundingBox" stroke="none" fill="none" x="3816" y="2536" width="843" height="760"/>
    <path fill="rgb(238,238,238)" stroke="none" d="M 4429,3181 C 4364,3228 4290,3263 4217,3281 4143,3299 4071,3299 4009,3283 3947,3266 3897,3233 3863,3187 3830,3140 3814,3082 3817,3018 3821,2954 3844,2886 3884,2822 3924,2757 3979,2698 4045,2651 4110,2603 4184,2569 4257,2551 4331,2533 4402,2532 4464,2549 4526,2565 4577,2598 4611,2645 4644,2691 4660,2750 4657,2814 4653,2878 4630,2945 4590,3010 4550,3074 4495,3133 4429,3181 L 4429,3181 Z "/>
   </g>
  </g>
  <g class="com.sun.star.drawing.CustomShape">
   <g id="id9">
    <rect class="BoundingBox" stroke="none" fill="none" x="3231" y="2473" width="630" height="721"/>
    <path fill="rgb(255,56,56)" stroke="none" d="M 3231,2833 L 3231,2833 C 3231,2770 3246,2708 3273,2653 3301,2598 3340,2553 3388,2521 3436,2490 3490,2473 3545,2473 L 3545,2473 3545,2473 C 3601,2473 3655,2490 3703,2521 3751,2553 3790,2598 3818,2653 3845,2708 3860,2770 3860,2833 L 3860,3193 3231,3193 3231,2833 Z "/>
   </g>
  </g>
  <g class="com.sun.star.drawing.LineShape">
   <g id="id10">
    <rect class="BoundingBox" stroke="none" fill="none" x="3235" y="2821" width="346" height="206"/>
    <path fill="none" stroke="rgb(0,0,0)" stroke-width="35" stroke-linejoin="round" d="M 3253,2839 L 3562,3008 "/>
   </g>
  </g>
  <g class="com.sun.star.drawing.LineShape">
   <g id="id11">
    <rect class="BoundingBox" stroke="none" fill="none" x="3531" y="2827" width="346" height="206"/>
    <path fill="none" stroke="rgb(0,0,0)" stroke-width="35" stroke-linejoin="round" d="M 3858,2845 L 3549,3014 "/>
   </g>
  </g>
 </g>
</svg>