<?xml version="1.0" encoding="UTF-8"?>
<!DOCTYPE svg PUBLIC "-//W3C//DTD SVG 1.1//EN" "http://www.w3.org/Graphics/SVG/1.1/DTD/svg11.dtd">
<svg version="1.2" width="49.02mm" height="45.03mm" viewBox="1100 1799 4902 4503" preserveAspectRatio="xMidYMid" fill-rule="evenodd" stroke-width="28.222" stroke-linejoin="round" xmlns="http://www.w3.org/2000/svg" xmlns:ooo="http://xml.openoffice.org/svg/export" xmlns:xlink="http://www.w3.org/1999/xlink" xmlns:presentation="http://sun.com/xmlns/staroffice/presentation" xmlns:smil="http://www.w3.org/2001/SMIL20/" xmlns:anim="urn:oasis:names:tc:opendocument:xmlns:animation:1.0" xmlns:svg="urn:oasis:names:tc:opendocument:xmlns:svg-compatible:1.0" xml:space="preserve">
 <defs class="EmbeddedBulletChars">
  <g id="bullet-char-template-57356" transform="scale(0.00048828125,-0.00048828125)">
   <path d="M 580,1141 L 1163,571 580,0 -4,571 580,1141 Z"/>
  </g>
  <g id="bullet-char-template-57354" transform="scale(0.00048828125,-0.00048828125)">
   <path d="M 8,1128 L 1137,1128 1137,0 8,0 8,1128 Z"/>
  </g>
  <g id="bullet-char-template-10146" transform="scale(0.00048828125,-0.00048828125)">
   <path d="M 174,0 L 602,739 174,1481 1456,739 174,0 Z M 1358,739 L 309,1346 659,739 1358,739 Z"/>
  </g>
  <g id="bullet-char-template-10132" transform="scale(0.00048828125,-0.00048828125)">
   <path d="M 2015,739 L 1276,0 717,0 1260,543 174,543 174,936 1260,936 717,1481 1274,1481 2015,739 Z"/>
  </g>
  <g id="bullet-char-template-10007" transform="scale(0.00048828125,-0.00048828125)">
   <path d="M 0,-2 C -7,14 -16,27 -25,37 L 356,567 C 262,823 215,952 215,954 215,979 228,992 255,992 264,992 276,990 289,987 310,991 331,999 354,1012 L 381,999 492,748 772,1049 836,1024 860,1049 C 881,1039 901,1025 922,1006 886,937 835,863 770,784 769,783 710,716 594,584 L 774,223 C 774,196 753,168 711,139 L 727,119 C 717,90 699,76 672,76 641,76 570,178 457,381 L 164,-76 C 142,-110 111,-127 72,-127 30,-127 9,-110 8,-76 1,-67 -2,-52 -2,-32 -2,-23 -1,-13 0,-2 Z"/>
  </g>
  <g id="bullet-char-template-10004" transform="scale(0.00048828125,-0.00048828125)">
   <path d="M 285,-33 C 182,-33 111,30 74,156 52,228 41,333 41,471 41,549 55,616 82,672 116,743 169,778 240,778 293,778 328,747 346,684 L 369,508 C 377,444 397,411 428,410 L 1163,1116 C 1174,1127 1196,1133 1229,1133 1271,1133 1292,1118 1292,1087 L 1292,965 C 1292,929 1282,901 1262,881 L 442,47 C 390,-6 338,-33 285,-33 Z"/>
  </g>
  <g id="bullet-char-template-9679" transform="scale(0.00048828125,-0.00048828125)">
   <path d="M 813,0 C 632,0 489,54 383,161 276,268 223,411 223,592 223,773 276,916 383,1023 489,1130 632,1184 813,1184 992,1184 1136,1130 1245,1023 1353,916 1407,772 1407,592 1407,412 1353,268 1245,161 1136,54 992,0 813,0 Z"/>
  </g>
  <g id="bullet-char-template-8226" transform="scale(0.00048828125,-0.00048828125)">
   <path d="M 346,457 C 273,457 209,483 155,535 101,586 74,649 74,723 74,796 101,859 155,911 209,963 273,989 346,989 419,989 480,963 531,910 582,859 608,796 608,723 608,648 583,586 532,535 482,483 420,457 346,457 Z"/>
  </g>
  <g id="bullet-char-template-8211" transform="scale(0.00048828125,-0.00048828125)">
   <path d="M -4,459 L 1135,459 1135,606 -4,606 -4,459 Z"/>
  </g>
  <g id="bullet-char-template-61548" transform="scale(0.00048828125,-0.00048828125)">
   <path d="M 173,740 C 173,903 231,1043 346,1159 462,1274 601,1332 765,1332 928,1332 1067,1274 1183,1159 1299,1043 1357,903 1357,740 1357,577 1299,437 1183,322 1067,206 928,148 765,148 601,148 462,206 346,322 231,437 173,577 173,740 Z"/>
  </g>
 </defs>
 <g class="Page">
  <g class="com.sun.star.drawing.CustomShape">
   <g id="id3">
    <rect class="BoundingBox" stroke="none" fill="none" x="1100" y="2600" width="4902" height="3702"/>
    <path fill="rgb(238,238,238)" stroke="none" d="M 6001,4451 C 6001,4775 5888,5094 5673,5376 5458,5657 5148,5891 4776,6053 4403,6215 3981,6301 3551,6301 3120,6301 2698,6215 2325,6053 1953,5891 1643,5657 1428,5376 1213,5094 1100,4775 1100,4451 1100,4126 1213,3807 1428,3525 1643,3244 1953,3010 2325,2848 2698,2686 3120,2600 3550,2600 3981,2600 4403,2686 4776,2848 5148,3010 5458,3244 5673,3525 5888,3807 6001,4126 6001,4450 L 6001,4451 Z "/>
   </g>
  </g>
  <g class="com.sun.star.drawing.CustomShape">
   <g id="id4">
    <rect class="BoundingBox" stroke="none" fill="none" x="2400" y="1799" width="2302" height="1703"/>
    <path fill="rgb(238,238,238)" stroke="none" d="M 4701,2650 C 4701,2800 4648,2946 4547,3076 4446,3205 4301,3312 4126,3387 3951,3462 3752,3501 3551,3501 3349,3501 3150,3462 2975,3387 2800,3312 2655,3205 2554,3076 2453,2946 2400,2800 2400,2651 2400,2501 2453,2355 2554,2225 2655,2096 2800,1989 2975,1914 3150,1839 3349,1800 3550,1800 3752,1800 3951,1839 4126,1914 4301,1989 4446,2096 4547,2225 4648,2355 4701,2501 4701,2650 L 4701,2650 Z "/>
   </g>
  </g>
  <g class="com.sun.star.drawing.CustomShape">
   <g id="id5">
    <rect class="BoundingBox" stroke="none" fill="none" x="3772" y="2243" width="357" height="357"/>
    <path fill="rgb(0,0,0)" stroke="none" d="M 4101,2421 C 4101,2448 4094,2474 4081,2496 4068,2519 4048,2539 4026,2552 4003,2565 3977,2572 3950,2572 3923,2572 3897,2565 3875,2552 3852,2539 3832,2519 3819,2496 3806,2474 3799,2448 3799,2421 3799,2394 3806,2368 3819,2346 3832,2323 3852,2303 3875,2290 3897,2277 3923,2270 3950,2270 3977,2270 4003,2277 4026,2290 4048,2303 4068,2323 4081,2346 4094,2368 4101,2394 4101,2421 L 4101,2421 Z "/>
    <path fill="none" stroke="rgb(255,56,56)" stroke-width="53" stroke-linejoin="round" d="M 4101,2421 C 4101,2448 4094,2474 4081,2496 4068,2519 4048,2539 4026,2552 4003,2565 3977,2572 3950,2572 3923,2572 3897,2565 3875,2552 3852,2539 3832,2519 3819,2496 3806,2474 3799,2448 3799,2421 3799,2394 3806,2368 3819,2346 3832,2323 3852,2303 3875,2290 3897,2277 3923,2270 3950,2270 3977,2270 4003,2277 4026,2290 4048,2303 4068,2323 4081,2346 4094,2368 4101,2394 4101,2421 Z "/>
   </g>
  </g>
  <g class="com.sun.star.drawing.CustomShape">
   <g id="id6">
    <rect class="BoundingBox" stroke="none" fill="none" x="2884" y="2242" width="357" height="357"/>
    <path fill="rgb(0,0,0)" stroke="none" d="M 2911,2420 C 2911,2447 2918,2473 2931,2495 2944,2518 2964,2538 2987,2551 3009,2564 3035,2571 3062,2571 3089,2571 3115,2564 3138,2551 3160,2538 3180,2518 3193,2495 3206,2473 3213,2447 3213,2420 3213,2393 3206,2367 3193,2344 3180,2322 3160,2302 3138,2289 3115,2276 3089,2269 3062,2269 3035,2269 3009,2276 2987,2289 2964,2302 2944,2322 2931,2344 2918,2367 2911,2393 2911,2420 L 2911,2420 Z "/>
    <path fill="none" stroke="rgb(255,56,56)" stroke-width="53" stroke-linejoin="round" d="M 2911,2420 C 2911,2447 2918,2473 2931,2495 2944,2518 2964,2538 2987,2551 3009,2564 3035,2571 3062,2571 3089,2571 3115,2564 3138,2551 3160,2538 3180,2518 3193,2495 3206,2473 3213,2447 3213,2420 3213,2393 3206,2367 3193,2344 3180,2322 3160,2302 3138,2289 3115,2276 3089,2269 3062,2269 3035,2269 3009,2276 2987,2289 2964,2302 2944,2322 2931,2344 2918,2367 2911,2393 2911,2420 Z "/>
   </g>
  </g>
  <g class="com.sun.star.drawing.CustomShape">
   <g id="id7">
    <rect class="BoundingBox" stroke="none" fill="none" x="3231" y="2459" width="630" height="721"/>
    <path fill="rgb(255,56,56)" stroke="none" d="M 3231,2819 L 3231,2819 C 3231,2756 3246,2694 3273,2639 3301,2584 3340,2539 3388,2507 3436,2476 3490,2459 3545,2459 L 3545,2459 3545,2459 C 3601,2459 3655,2476 3703,2507 3751,2539 3790,2584 3818,2639 3845,2694 3860,2756 3860,2819 L 3860,3179 3231,3179 3231,2819 Z "/>
   </g>
  </g>
  <g class="com.sun.star.drawing.LineShape">
   <g id="id8">
    <rect class="BoundingBox" stroke="none" fill="none" x="3235" y="2807" width="346" height="206"/>
    <path fill="none" stroke="rgb(0,0,0)" stroke-width="35" stroke-linejoin="round" d="M 3253,2825 L 3562,2994 "/>
   </g>
  </g>
  <g class="com.sun.star.drawing.LineShape">
   <g id="id9">
    <rect class="BoundingBox" stroke="none" fill="none" x="3531" y="2813" width="346" height="206"/>
    <path fill="none" stroke="rgb(0,0,0)" stroke-width="35" stroke-linejoin="round" d="M 3858,2831 L 3549,3000 "/>
   </g>
  </g>
 </g>
</svg>